<svg xmlns="http://www.w3.org/2000/svg" xmlns:xlink="http://www.w3.org/1999/xlink" width="2500" height="230" style="background:#fff" viewBox="0 0 2500 230">
    <defs>
        <path id="a" d="M0 0h2500v230H0z"/>
    </defs>
    <g fill="none" fill-rule="evenodd">
        <mask id="b" fill="#fff">
            <use xlink:href="#a"/>
        </mask>
        <use fill="#FAFAFB" xlink:href="#a"/>
        <g mask="url(#b)">
            <path fill="#BDD63B" d="M1361 155h2v-5h-2zM1361 164h2v-5h-2zM1364 158h5v-2h-5zM1355 158h5v-2h-5zM1133 155h2v-5h-2zM1133 164h2v-5h-2zM1136 158h5v-2h-5zM1127 158h5v-2h-5zM659 166h2v-5h-2zM659 175h2v-5h-2zM663 169h5v-2h-5zM653 169h5v-2h-5zM767.414 77L766 75.588 769.588 72 771 73.414z"/>
            <path fill="#3DBC9F" d="M758.262 85L757 83.74l5.74-5.74 1.26 1.26zM764.255 88L763 86.744 777.745 72 779 73.256z"/>
            <path fill="#3B6FC4" d="M769.28 94L768 92.72 782.72 78l1.28 1.28zM742.461 110.598a4.154 4.154 0 0 1 4.143 4.155c0 1.245 1.01 2.26 2.253 2.26 1.24 0 2.25-1.015 2.25-2.26v-18.99c0-8.318-6.746-15.084-15.039-15.084-8.29 0-15.037 6.766-15.037 15.083v18.991a2.258 2.258 0 0 0 2.252 2.26 2.258 2.258 0 0 0 2.251-2.26 4.153 4.153 0 0 1 4.143-4.155c2.283 0 4.14 1.864 4.14 4.155a2.26 2.26 0 0 0 2.251 2.26 2.258 2.258 0 0 0 2.252-2.26c0-2.291 1.858-4.155 4.141-4.155m6.396 8.31a4.153 4.153 0 0 1-4.143-4.155 2.258 2.258 0 0 0-2.253-2.258 2.256 2.256 0 0 0-2.25 2.258 4.153 4.153 0 0 1-4.143 4.156c-2.284 0-4.141-1.864-4.141-4.156a2.257 2.257 0 0 0-2.25-2.258 2.257 2.257 0 0 0-2.252 2.258c0 2.292-1.86 4.156-4.142 4.156a4.154 4.154 0 0 1-4.143-4.156v-18.99c0-9.364 7.595-16.981 16.928-16.981 9.335 0 16.929 7.617 16.929 16.98v18.991c0 2.292-1.857 4.156-4.14 4.156"/>
            <path fill="#3B6FC4" d="M730.189 92.173a3.155 3.155 0 0 0-3.147 3.157 3.156 3.156 0 0 0 3.147 3.157 3.156 3.156 0 0 0 3.146-3.157 3.155 3.155 0 0 0-3.146-3.157m0 8.212c-2.779 0-5.039-2.269-5.039-5.055 0-2.786 2.26-5.054 5.039-5.054s5.038 2.268 5.038 5.054c0 2.786-2.259 5.055-5.038 5.055"/>
            <path fill="#3B6FC4" d="M731.979 95.33c0 .993-.8 1.796-1.79 1.796s-1.791-.803-1.791-1.795c0-.993.802-1.797 1.791-1.797.99 0 1.79.804 1.79 1.797M741.948 92.173a3.155 3.155 0 0 0-3.146 3.157 3.156 3.156 0 0 0 3.146 3.157 3.156 3.156 0 0 0 3.148-3.157 3.155 3.155 0 0 0-3.148-3.157m0 8.212c-2.777 0-5.037-2.269-5.037-5.055 0-2.786 2.26-5.054 5.037-5.054 2.78 0 5.04 2.268 5.04 5.054 0 2.786-2.26 5.055-5.04 5.055"/>
            <path fill="#3B6FC4" d="M743.74 95.33a1.792 1.792 0 0 1-3.58 0c-.002-.992.799-1.796 1.788-1.796.99 0 1.791.804 1.791 1.797M1294.112 173.08h62.9v-1.898h-62.9zM1169.88 210.15h153.47v-1.896h-153.47z"/>
            <path fill="#3B6FC4" d="M1245.887 229.81h1.891v-20.607h-1.891zM1356.065 229.81h1.891v-33.786h-1.891zM1136.317 173.08h62.899v-1.898h-62.9zM1135.372 229.81h1.891v-33.786h-1.891zM1081.46 199.495H864.15v-1.898h217.31a2.286 2.286 0 0 0 2.279-2.287v-24.038a2.286 2.286 0 0 0-2.28-2.29h-60.064c-2.464 0-4.47-2.01-4.47-4.484V145.49c0-2.474 2.006-4.486 4.47-4.486h58.152c1.422 0 2.58-1.16 2.58-2.588v-97.48h1.89v97.48c0 2.473-2.006 4.484-4.47 4.484h-58.152a2.587 2.587 0 0 0-2.579 2.59v19.01a2.586 2.586 0 0 0 2.58 2.588h60.063c2.3 0 4.171 1.877 4.171 4.185v24.038c0 2.307-1.87 4.185-4.17 4.185M751.26 198.854h-69.142a4.185 4.185 0 0 1-4.174-4.185v-42.783c0-6.52-5.287-11.824-11.788-11.824H512.434v-1.897h153.722c7.544 0 13.68 6.156 13.68 13.721v42.783a2.287 2.287 0 0 0 2.282 2.288h69.142v1.897z"/>
            <path fill="#3B6FC4" d="M1076.702 139.66h-20.461v-1.897h20.461c.671 0 2.233-.125 2.233-1.292v-1.553h1.892v1.553c0 1.471-1.081 3.19-4.125 3.19M1049.858 139.66h3.074v-1.897h-3.074zM1014.087 152.74h1.892v-3.99h-1.892zM1014.087 164.715h1.892v-8.774h-1.892zM1080.353 33.195v5.571c0 .673.546 1.22 1.217 1.22h3.003a1.22 1.22 0 0 0 1.217-1.22v-5.571h-5.437zm4.22 8.689h-3.003a3.117 3.117 0 0 1-3.108-3.118v-7.469h9.22v7.47a3.116 3.116 0 0 1-3.109 3.117z"/>
            <path fill="#3B6FC4" d="M1081.441 31.298h3.262v-4.363h-3.262v4.363zm-1.891 1.896h7.044v-8.157h-7.044v8.157zM863.6 203.052h1.89v-9.011h-1.89zM750.314 203.052h1.891v-9.011h-1.891zM775.86 197.756v6.561l-3.761 3.771h-8.83l-3.76-3.771V192.18l3.76-3.773h8.83l3.76 3.773v2.787h-4.578v-.984l-1.309-1.312h-4.577l-1.309 1.312v8.529l1.309 1.313h4.577l1.309-1.313v-.491l1.242-1.247-.751-.722-1.636 1.64h-3.107v-3.936z"/>
            <path fill="#3DBC9F" d="M784.033 201.036h5.592l-2.223-8.365h-1.144l-2.225 8.365zm12.1 7.052h-4.611l-.752-2.788h-7.881l-.752 2.788h-4.644l5.233-19.681h8.175l5.232 19.681z"/>
            <path fill="#BDD63B" d="M802.182 194.968l-.751.722 1.241 1.246v11.153h-4.577v-19.682h3.598l6.377 6.396 6.377-6.396h3.596v19.682h-4.578v-11.153l1.242-1.246-.753-.722-5.884 5.905z"/>
            <path fill="#3B6FC4" d="M836.682 208.088h-15.37v-19.68h15.37v4.263H825.89v3.444h9.484v4.265h-9.484v3.445h10.792z"/>
            <path fill="#3DBC9F" d="M845.838 197.427h4.25l1.31-1.311v-2.133l-1.31-1.312h-5.559v15.418h-4.578v-19.682h12.263l3.76 3.773v5.74l-2.778 2.789 2.779 2.787v4.593h-4.578V205.3l-3.596-3.607h-1.963z"/>
            <path fill="#3B6FC4" d="M1246.498 173.672c-5.312 0-9.635 4.335-9.635 9.664 0 5.33 4.323 9.663 9.635 9.663a9.605 9.605 0 0 0 7.57-3.683l-6.892-5.93 6.525-6.468a9.528 9.528 0 0 0-7.203-3.246m0 21.225c-6.355 0-11.526-5.185-11.526-11.56 0-6.376 5.17-11.562 11.526-11.562 3.667 0 7.034 1.692 9.235 4.644l.494.66-6.261 6.208 6.624 5.7-.458.697a11.497 11.497 0 0 1-9.634 5.213"/>
            <path fill="#D8E2F3" d="M550.397 37.62c-7.561 0-13.712-6.17-13.712-13.754 0-7.582 6.15-13.752 13.712-13.752 2.667 0 5.253.769 7.476 2.223l-1.032 1.59a11.742 11.742 0 0 0-6.444-1.917c-6.518 0-11.82 5.32-11.82 11.856 0 6.538 5.302 11.857 11.82 11.857 2.715 0 5.368-.946 7.47-2.666l1.193 1.468a13.71 13.71 0 0 1-8.663 3.095M1886.592 12.01c-6.516 0-11.82 5.32-11.82 11.856 0 6.538 5.304 11.857 11.82 11.857 6.518 0 11.82-5.32 11.82-11.857 0-6.537-5.302-11.856-11.82-11.856m0 25.61c-7.56 0-13.711-6.17-13.711-13.754 0-7.583 6.15-13.752 13.711-13.752 7.56 0 13.711 6.169 13.711 13.752 0 7.584-6.15 13.753-13.71 13.753"/>
            <path fill="#D8E2F3" d="M550.397 31.414c-4.15 0-7.524-3.386-7.524-7.547 0-4.162 3.374-7.548 7.524-7.548 1.8 0 3.543.648 4.906 1.825l-1.234 1.438a5.616 5.616 0 0 0-3.672-1.365c-3.107 0-5.634 2.533-5.634 5.65 0 3.116 2.527 5.65 5.634 5.65a5.581 5.581 0 0 0 3.982-1.656l1.337 1.343a7.46 7.46 0 0 1-5.32 2.21M550.397 61.639c-6.518 0-11.82 5.318-11.82 11.856s5.302 11.856 11.82 11.856c6.516 0 11.818-5.318 11.818-11.856s-5.302-11.856-11.818-11.856m0 25.608c-7.561 0-13.712-6.17-13.712-13.752 0-7.584 6.15-13.754 13.712-13.754 7.56 0 13.71 6.17 13.71 13.754 0 7.583-6.15 13.752-13.71 13.752"/>
            <path fill="#D8E2F3" d="M550.397 67.845c-3.107 0-5.634 2.533-5.634 5.65 0 3.116 2.527 5.65 5.634 5.65 3.106 0 5.632-2.534 5.632-5.65 0-3.117-2.526-5.65-5.632-5.65m0 13.198c-4.15 0-7.524-3.387-7.524-7.547 0-4.163 3.374-7.549 7.524-7.549 4.149 0 7.524 3.386 7.524 7.549 0 4.16-3.375 7.547-7.524 7.547"/>
            <path fill="#3DBC9F" d="M591.235 62.524a11.69 11.69 0 0 0-4.488-.884l-.035-1.688.002-.21h.006c1.834 0 3.58.348 5.233 1.027l-.718 1.755zm-12.867 2.608l-1.34-1.337a13.65 13.65 0 0 1 4.434-2.995l.73 1.75a11.795 11.795 0 0 0-3.824 2.582zm19.285 3.785a11.778 11.778 0 0 0-2.578-3.834l1.333-1.347a13.709 13.709 0 0 1 2.99 4.446l-1.745.735zm-24.618 4.605l.007-.12a13.484 13.484 0 0 1 1.023-5.141l1.748.722a11.83 11.83 0 0 0-.885 4.513l-1.893.026zm26.383 5.236l-1.746-.727c.594-1.438.894-2.965.894-4.535l1.892-.053v.053c0 1.82-.35 3.59-1.04 5.262zm-22.351 4.477a13.675 13.675 0 0 1-2.982-4.453l1.745-.73a11.81 11.81 0 0 0 2.571 3.84l-1.334 1.343zm14.939 2.967l-.727-1.753a11.803 11.803 0 0 0 3.83-2.573l1.338 1.34a13.725 13.725 0 0 1-4.441 2.986zm-5.246 1.047h-.013c-1.811 0-3.57-.348-5.231-1.037l.72-1.753a11.72 11.72 0 0 0 4.51.893l.014 1.897z"/>
            <path fill="#BDD63B" d="M626.222 62.524a11.689 11.689 0 0 0-4.487-.884l-.036-1.688.002-.21h.006c1.834 0 3.582.348 5.233 1.027l-.718 1.755zm-12.867 2.608l-1.34-1.337a13.65 13.65 0 0 1 4.434-2.995l.73 1.75a11.795 11.795 0 0 0-3.824 2.582zm19.285 3.785a11.758 11.758 0 0 0-2.578-3.834l1.333-1.347a13.709 13.709 0 0 1 2.99 4.446l-1.745.735zm-24.618 4.605l.007-.12a13.484 13.484 0 0 1 1.023-5.141l1.748.722a11.83 11.83 0 0 0-.885 4.513l-1.893.026zm26.385 5.236l-1.748-.727c.594-1.438.894-2.965.894-4.535l1.892-.053v.053c0 1.82-.35 3.59-1.038 5.262zm-22.353 4.477a13.675 13.675 0 0 1-2.982-4.453l1.745-.73a11.81 11.81 0 0 0 2.571 3.84l-1.334 1.343zm14.939 2.967l-.727-1.753a11.803 11.803 0 0 0 3.83-2.573l1.338 1.34a13.725 13.725 0 0 1-4.441 2.986zm-5.246 1.047h-.012c-1.812 0-3.571-.348-5.232-1.037l.72-1.753c1.432.593 2.95.893 4.512.893l.012 1.897z"/>
            <path fill="#3B6FC4" d="M557.565 24.563v-6.524h9.497v2.693h-6.607v1.14h4.852l2.375 2.38v3.831l-2.375 2.383h-5.574l-2.375-2.383V26.22h2.89v.725l.827.829h2.891l.824-.83v-1.551l-.824-.83zM581.635 28.705h-1.446v1.76h-2.89v-1.76h-5.783v-2.587l5.184-8.08h3.386l-5.699 8.845.58.352.804-1.222h1.527v-1.968l.392-.622h2.499v2.59h1.446zM1734.878 28.486h3.64l1.04-1.044v-6.78l-1.04-1.044h-3.64l-1.04 1.044v6.78l1.04 1.044zm-1.69-12.258h7.02l2.99 2.998v9.65l-2.99 3h-7.02l-2.99-3v-9.65l2.99-2.998z"/>
            <path fill="#3DBC9F" d="M1752.709 28.486h3.64l1.04-1.044v-6.78l-1.04-1.044h-3.64l-1.04 1.044v6.78l1.04 1.044zm-1.69-12.258h7.02l2.99 2.998v9.65l-2.99 3h-7.02l-2.989-3v-9.65l2.99-2.998z"/>
            <path fill="#BDD63B" d="M1770.54 28.486h3.64l1.04-1.044v-6.78l-1.04-1.044h-3.64l-1.04 1.044v6.78l1.04 1.044zm-1.69-12.258h7.02l2.991 2.998v9.65l-2.99 3h-7.02l-2.99-3v-9.65l2.99-2.998z"/>
            <path fill="#3B6FC4" d="M1796.172 19.488l-7.93 12.388h-4.263l8.552-13.353-.701-.444-1.014 1.539h-7.384v-3.39h12.74z"/>
            <path fill="#3DBC9F" d="M1811.145 29.66h-1.82v2.216h-3.64v-2.217h-7.28V26.4l6.526-10.171h4.264l-7.177 11.136.729.444 1.013-1.54h1.925v-2.476l.493-.783h3.148v3.259h1.819z"/>
            <path fill="#BDD63B" d="M1824.297 19.619h-3.64l-1.04 1.043v.521l1.04 1.043h4.16l.52-.521v-1.043l-1.04-1.043zm-5.33-3.392h7.02l2.989 3v9.65l-2.99 2.998h-6.76l-2.99-2.999v-2.085h3.64v.651l1.04 1.044h3.38l1.04-1.044v-1.564l.988-.991-.597-.574-1.3 1.304h-5.46l-2.991-3v-3.39l2.99-3z"/>
            <path fill="#3B6FC4" d="M1838.488 28.486h3.64l1.04-1.044v-6.78l-1.04-1.044h-3.64l-1.04 1.044v6.78l1.04 1.044zm-1.69-12.258h7.02l2.99 2.998v9.65l-2.99 3h-7.02l-2.99-3v-9.65l2.99-2.998zM1919.635 29.66h-1.821v2.216h-3.64v-2.217h-7.28V26.4l6.526-10.171h4.264l-7.177 11.136.729.444 1.015-1.54h1.923v-2.476l.494-.783h3.146v3.259h1.821zM1937.466 31.876h-13v-4.042l9.36-6.703v-.47l-1.04-1.042h-3.38l-1.04 1.043v.522h-3.639v-1.958l2.99-2.999h6.76l2.99 3v3.39l-8.868 6.365.444.573 1.507-1.07h6.916zM1949.838 22.095l1.04-1.043v-.39l-1.04-1.044h-2.082l-1.039 1.044v.39l1.04 1.043h2.08zm-2.86 6.39h3.64l1.039-1.043v-.913l-1.04-1.042h-3.64l-1.04 1.042v.913l1.04 1.043zm-4.68.39v-3.78l1.69-1.696-.91-.912v-3.26l2.99-3h5.46l2.989 3v3.26l-.91.912 1.69 1.696v3.78l-2.989 3h-7.02l-2.99-3z"/>
            <path fill="#D8E2F3" d="M1893.684 24.815h-8.037v-8.22h1.89v6.322h6.147z"/>
            <path fill="#3B6FC4" d="M1230.398 153.894a1.893 1.893 0 0 1-1.892 1.897 1.895 1.895 0 0 1-1.891-1.897c0-1.048.848-1.898 1.891-1.898 1.046 0 1.892.85 1.892 1.898"/>
            <path fill="#3DBC9F" d="M1230.398 172.864a1.893 1.893 0 0 1-1.892 1.897 1.895 1.895 0 0 1-1.891-1.897c0-1.049.848-1.897 1.891-1.897 1.046 0 1.892.848 1.892 1.897M1211.486 153.894a1.893 1.893 0 0 1-1.892 1.897 1.895 1.895 0 0 1-1.891-1.897c0-1.048.848-1.898 1.891-1.898 1.046 0 1.892.85 1.892 1.898"/>
            <path fill="#3B6FC4" d="M1192.574 153.894a1.893 1.893 0 0 1-1.892 1.897 1.895 1.895 0 0 1-1.891-1.897c0-1.048.848-1.898 1.891-1.898 1.046 0 1.892.85 1.892 1.898"/>
            <path fill="#3DBC9F" d="M1173.662 153.894a1.893 1.893 0 0 1-1.892 1.897 1.895 1.895 0 0 1-1.891-1.897c0-1.048.848-1.898 1.891-1.898 1.046 0 1.892.85 1.892 1.898"/>
            <path fill="#3B6FC4" d="M1154.75 153.894a1.893 1.893 0 0 1-1.892 1.897 1.894 1.894 0 0 1-1.89-1.897c0-1.048.847-1.898 1.89-1.898 1.046 0 1.892.85 1.892 1.898"/>
            <path fill="#3DBC9F" d="M1070.771 183.337a1.894 1.894 0 0 1-1.891 1.897c-1.043 0-1.89-.85-1.89-1.897 0-1.05.847-1.898 1.89-1.898 1.045 0 1.891.849 1.891 1.898"/>
            <path fill="#3B6FC4" d="M1051.86 183.337a1.894 1.894 0 0 1-1.891 1.897 1.895 1.895 0 0 1-1.891-1.897c0-1.05.847-1.898 1.891-1.898s1.89.849 1.89 1.898"/>
            <path fill="#3DBC9F" d="M1032.947 183.337a1.894 1.894 0 0 1-1.89 1.897 1.895 1.895 0 0 1-1.891-1.897c0-1.05.847-1.898 1.891-1.898s1.89.849 1.89 1.898"/>
            <path fill="#3B6FC4" d="M1014.036 183.337a1.895 1.895 0 0 1-1.891 1.897 1.895 1.895 0 0 1-1.891-1.897c0-1.05.847-1.898 1.891-1.898s1.891.849 1.891 1.898"/>
            <path fill="#3DBC9F" d="M995.124 183.337a1.895 1.895 0 0 1-1.89 1.897 1.895 1.895 0 0 1-1.892-1.897c0-1.05.847-1.898 1.891-1.898s1.891.849 1.891 1.898"/>
            <path fill="#3B6FC4" d="M976.212 183.337a1.895 1.895 0 0 1-1.891 1.897 1.895 1.895 0 0 1-1.891-1.897c0-1.05.847-1.898 1.891-1.898s1.891.849 1.891 1.898"/>
            <path fill="#3DBC9F" d="M957.3 183.337a1.894 1.894 0 0 1-1.891 1.897 1.895 1.895 0 0 1-1.891-1.897c0-1.05.847-1.898 1.891-1.898 1.046 0 1.891.849 1.891 1.898"/>
            <path fill="#3B6FC4" d="M1230.398 191.834a1.893 1.893 0 0 1-1.892 1.897 1.895 1.895 0 0 1-1.891-1.897c0-1.048.848-1.897 1.891-1.897 1.046 0 1.892.849 1.892 1.897"/>
            <path fill="#3DBC9F" d="M1211.486 191.834a1.893 1.893 0 0 1-1.892 1.897 1.895 1.895 0 0 1-1.891-1.897c0-1.048.848-1.897 1.891-1.897 1.046 0 1.892.849 1.892 1.897"/>
            <path fill="#3B6FC4" d="M1192.574 191.834a1.893 1.893 0 0 1-1.892 1.897 1.895 1.895 0 0 1-1.891-1.897c0-1.048.848-1.897 1.891-1.897 1.046 0 1.892.849 1.892 1.897"/>
            <path fill="#3DBC9F" d="M1173.662 191.834a1.893 1.893 0 0 1-1.892 1.897 1.895 1.895 0 0 1-1.891-1.897c0-1.048.848-1.897 1.891-1.897 1.046 0 1.892.849 1.892 1.897"/>
            <path fill="#3B6FC4" d="M1154.75 191.834a1.893 1.893 0 0 1-1.892 1.897 1.894 1.894 0 0 1-1.89-1.897c0-1.048.847-1.897 1.89-1.897 1.046 0 1.892.849 1.892 1.897M1263.493 153.894c0 1.048.846 1.897 1.892 1.897a1.894 1.894 0 0 0 1.891-1.897 1.895 1.895 0 0 0-1.891-1.898c-1.046 0-1.892.85-1.892 1.898"/>
            <path fill="#3DBC9F" d="M1263.493 172.864c0 1.049.846 1.897 1.892 1.897a1.894 1.894 0 0 0 1.891-1.897 1.894 1.894 0 0 0-1.891-1.897 1.893 1.893 0 0 0-1.892 1.897M1282.405 153.894c0 1.048.846 1.897 1.892 1.897a1.894 1.894 0 0 0 1.891-1.897 1.895 1.895 0 0 0-1.891-1.898c-1.046 0-1.892.85-1.892 1.898"/>
            <path fill="#3B6FC4" d="M1301.317 153.894c0 1.048.846 1.897 1.892 1.897a1.894 1.894 0 0 0 1.891-1.897 1.895 1.895 0 0 0-1.891-1.898c-1.046 0-1.892.85-1.892 1.898"/>
            <path fill="#3DBC9F" d="M1320.23 153.894c0 1.048.845 1.897 1.89 1.897a1.894 1.894 0 0 0 1.892-1.897 1.895 1.895 0 0 0-1.891-1.898c-1.046 0-1.892.85-1.892 1.898"/>
            <path fill="#3B6FC4" d="M1339.141 153.894c0 1.048.846 1.897 1.892 1.897a1.895 1.895 0 0 0 1.891-1.897 1.896 1.896 0 0 0-1.891-1.898c-1.046 0-1.892.85-1.892 1.898M1263.493 191.834c0 1.049.846 1.897 1.892 1.897a1.894 1.894 0 0 0 1.891-1.897 1.894 1.894 0 0 0-1.891-1.897 1.893 1.893 0 0 0-1.892 1.897"/>
            <path fill="#3DBC9F" d="M1282.405 191.834c0 1.049.846 1.897 1.892 1.897a1.894 1.894 0 0 0 1.891-1.897 1.894 1.894 0 0 0-1.891-1.897 1.893 1.893 0 0 0-1.892 1.897"/>
            <path fill="#3B6FC4" d="M1301.317 191.834c0 1.049.846 1.897 1.892 1.897a1.894 1.894 0 0 0 1.891-1.897 1.894 1.894 0 0 0-1.891-1.897 1.893 1.893 0 0 0-1.892 1.897"/>
            <path fill="#3DBC9F" d="M1320.23 191.834c0 1.049.845 1.897 1.89 1.897a1.894 1.894 0 0 0 1.892-1.897 1.894 1.894 0 0 0-1.891-1.897 1.893 1.893 0 0 0-1.892 1.897"/>
            <path fill="#3B6FC4" d="M1339.141 191.834c0 1.049.846 1.897 1.892 1.897a1.895 1.895 0 0 0 1.891-1.897 1.895 1.895 0 0 0-1.891-1.897 1.893 1.893 0 0 0-1.892 1.897M879.692 132.715h8.056l.283.36c.052.063 5.339 6.49 18.977 6.49 13.318 0 23.363-10.076 23.363-23.437 0-12.92-10.48-23.435-23.363-23.435h-45.953c-12.88 0-23.362 10.514-23.362 23.435 0 13.58 9.826 23.436 23.362 23.436 14.012 0 18.314-6.356 18.356-6.42l.28-.43zm27.316 8.746c-12.893 0-18.775-5.374-20.147-6.85h-6.187c-1.286 1.576-6.562 6.85-19.619 6.85-14.633 0-25.254-10.654-25.254-25.333 0-13.968 11.329-25.332 25.254-25.332h45.953c13.925 0 25.254 11.364 25.254 25.332 0 14.442-10.856 25.333-25.254 25.333z"/>
            <path fill="#3B6FC4" d="M876.338 90.796h15.388V87.94a.776.776 0 0 0-.773-.778h-13.84a.776.776 0 0 0-.775.778v2.857zm17.279 1.898h-19.17v-4.755a2.673 2.673 0 0 1 2.665-2.674h13.841c1.47 0 2.664 1.2 2.664 2.674v4.755z"/>
            <path fill="#3DBC9F" d="M870.571 113.636h-7.537v-7.56c0-1.286-1.04-2.329-2.323-2.329a2.325 2.325 0 0 0-2.32 2.33v7.56h-7.537a2.326 2.326 0 0 0-2.322 2.328c0 1.287 1.039 2.33 2.322 2.33h7.536v7.56c0 1.286 1.04 2.33 2.321 2.33a2.326 2.326 0 0 0 2.323-2.33v-7.56h7.537a2.325 2.325 0 0 0 2.321-2.33 2.326 2.326 0 0 0-2.32-2.329"/>
            <path fill="#3B6FC4" d="M906.188 103.105a3.16 3.16 0 0 0-3.15 3.16 3.16 3.16 0 0 0 3.15 3.162 3.16 3.16 0 0 0 3.151-3.161 3.16 3.16 0 0 0-3.15-3.161m0 8.219c-2.781 0-5.043-2.27-5.043-5.058 0-2.789 2.262-5.058 5.042-5.058s5.043 2.269 5.043 5.058c0 2.789-2.263 5.058-5.043 5.058M906.188 123.426a3.16 3.16 0 0 0-3.15 3.16 3.16 3.16 0 0 0 3.15 3.161 3.16 3.16 0 0 0 3.151-3.16 3.16 3.16 0 0 0-3.15-3.161m0 8.218c-2.781 0-5.043-2.269-5.043-5.058 0-2.788 2.262-5.058 5.042-5.058s5.043 2.27 5.043 5.058c0 2.79-2.263 5.058-5.043 5.058M896.059 113.266a3.159 3.159 0 0 0-3.152 3.16 3.16 3.16 0 0 0 3.152 3.16 3.16 3.16 0 0 0 3.152-3.16 3.16 3.16 0 0 0-3.152-3.16m0 8.217c-2.78 0-5.043-2.268-5.043-5.058 0-2.788 2.262-5.056 5.043-5.056 2.78 0 5.043 2.268 5.043 5.056 0 2.79-2.263 5.058-5.043 5.058M916.318 113.266a3.159 3.159 0 0 0-3.151 3.16 3.16 3.16 0 0 0 3.15 3.16 3.16 3.16 0 0 0 3.152-3.16 3.159 3.159 0 0 0-3.151-3.16m0 8.217c-2.78 0-5.043-2.268-5.043-5.058 0-2.788 2.263-5.056 5.043-5.056 2.78 0 5.042 2.268 5.042 5.056 0 2.79-2.262 5.058-5.042 5.058M884.978 85.979h-1.891V74.445c0-3.719 3.015-6.745 6.723-6.745h19.83c2.664 0 4.832-2.173 4.832-4.846s-2.168-4.847-4.832-4.847h-56.287c-3.707 0-6.724-3.026-6.724-6.746V30.785c0-3.075 2.493-5.575 5.558-5.575h139.12c3.415 0 6.192 2.783 6.192 6.207v47.737c0 2.378 1.928 4.313 4.298 4.313h81.274v1.897h-81.274c-3.413 0-6.19-2.785-6.19-6.21V31.417a4.31 4.31 0 0 0-4.3-4.31h-139.12a3.675 3.675 0 0 0-3.667 3.678V51.26c0 2.674 2.168 4.848 4.833 4.848h56.287c3.707 0 6.724 3.026 6.724 6.745 0 3.718-3.017 6.744-6.724 6.744h-19.83c-2.664 0-4.832 2.176-4.832 4.847v11.534zM860.712 100.082c-8.732 0-15.836 7.126-15.836 15.884 0 8.757 7.104 15.884 15.836 15.884 8.73 0 15.835-7.127 15.835-15.884 0-8.758-7.104-15.884-15.835-15.884m0 33.664c-9.775 0-17.726-7.976-17.726-17.78 0-9.806 7.951-17.782 17.726-17.782 9.774 0 17.725 7.976 17.725 17.782 0 9.804-7.951 17.78-17.725 17.78"/>
            <path fill="#3B6FC4" d="M856.933 89.928c-.032 0-.065.001-.097.004-2.878.189-8.457 1.148-13.51 5.436-3.355 2.848-5.623 6.442-6.932 10.987-.124.425-.04.873.228 1.23.137.183.31.327.505.425 3.132-9.285 11.465-16 21.173-17.064a1.415 1.415 0 0 0-.39-.631 1.416 1.416 0 0 0-.977-.387zm-19.17 20.128a3.286 3.286 0 0 1-2.652-1.331 3.276 3.276 0 0 1-.535-2.897c1.418-4.917 3.88-8.812 7.53-11.91 5.465-4.637 11.495-5.674 14.604-5.88a3.364 3.364 0 0 1 2.492.893 3.331 3.331 0 0 1 1.046 2.419v1.341l-.878.063c-9.64.688-17.965 7.4-20.715 16.695l-.891-.22v.827zM909.765 90.946c9.71 1.065 18.042 7.78 21.173 17.064.195-.1.369-.242.506-.425.268-.357.351-.805.229-1.23-1.31-4.545-3.578-8.14-6.933-10.987-5.054-4.288-10.632-5.247-13.51-5.436a1.38 1.38 0 0 0-1.075.383 1.426 1.426 0 0 0-.39.631m20.536 19.11v-.867l-.89.26c-2.75-9.295-11.076-16.006-20.716-16.695l-.877-.063v-1.34c0-.915.381-1.797 1.046-2.421a3.323 3.323 0 0 1 2.491-.892c3.109.207 9.14 1.243 14.605 5.881 3.65 3.097 6.113 6.993 7.53 11.91a3.276 3.276 0 0 1-.536 2.896 3.286 3.286 0 0 1-2.653 1.331M861.383 31.298h7.565v-1.897h-7.565zM876.751 31.298h88.332v-1.897h-88.332zM1070.58 206.286h7.564v-1.897h-7.564zM974.445 206.286h88.332v-1.897h-88.332z"/>
            <path fill="#3DBC9F" d="M940.607 68.765h6.121v-6.14h-6.12v6.14zm-1.891 1.898h9.903v-9.936h-9.903v9.936z"/>
            <path fill="#3B6FC4" d="M959.011 94.806h8.011V86.77h-8.01z"/>
            <path fill="#D8E2F3" d="M785.267 160.656h6.12v-6.14h-6.12v6.14zm-1.89 1.897h9.902v-9.935h-9.903v9.935z"/>
            <path fill="#3DBC9F" d="M803.233 142.635h8.013v-8.037h-8.013zM543.647 219.442h6.12v-6.14h-6.12v6.14zm-1.89 1.897h9.902v-9.934h-9.903v9.934z"/>
            <path fill="#3B6FC4" d="M561.613 201.421h8.013v-8.037h-8.013z"/>
            <path fill="#D8E2F3" d="M573.091 212.413h8.013v-8.036h-8.013zM859.542 161.186h1.892v-4.795h-1.892zM859.542 170.671h1.892v-4.795h-1.892zM862.827 164.478h4.78v-1.896h-4.78zM853.37 164.478h4.78v-1.896h-4.779z"/>
            <path fill="#3B6FC4" d="M692.338 63.786h1.89V58.99h-1.89zM692.338 73.27h1.89v-4.794h-1.89zM695.622 67.078h4.78v-1.897h-4.78zM686.165 67.078h4.78v-1.897h-4.78z"/>
            <path fill="#BDD63B" d="M1855.916 163.53h1.892v-4.795h-1.892zM1855.916 173.015h1.892v-4.794h-1.892zM1849.743 166.825h4.78v-1.897h-4.78zM1859.2 166.825h4.78v-1.897h-4.78zM1769.416 70.464l-1.338-1.341 3.396-3.407 1.337 1.343z"/>
            <path fill="#3DBC9F" d="M1759.851 80.059l-1.337-1.341 6.085-6.105 1.336 1.341zM1766.118 83.15l-1.338-1.342 15.702-15.751 1.338 1.342z"/>
            <path fill="#3B6FC4" d="M1771.811 88.533l-1.338-1.342 15.376-15.423 1.338 1.34z"/>
            <path fill="#3B6FC4" d="M1763.789 110.598a4.154 4.154 0 0 1 4.143 4.155c0 1.245 1.01 2.26 2.251 2.26 1.24 0 2.25-1.015 2.25-2.26v-18.99c0-8.318-6.745-15.084-15.038-15.084-8.29 0-15.037 6.766-15.037 15.083v18.991c0 1.245 1.01 2.26 2.251 2.26a2.258 2.258 0 0 0 2.252-2.26 4.153 4.153 0 0 1 4.142-4.155c2.283 0 4.14 1.864 4.14 4.155a2.26 2.26 0 0 0 2.252 2.26 2.258 2.258 0 0 0 2.251-2.26 4.154 4.154 0 0 1 4.143-4.155m6.394 8.31a4.153 4.153 0 0 1-4.143-4.155 2.257 2.257 0 0 0-2.251-2.258 2.257 2.257 0 0 0-2.251 2.258 4.153 4.153 0 0 1-4.143 4.156c-2.284 0-4.142-1.864-4.142-4.156a2.257 2.257 0 0 0-2.25-2.258 2.257 2.257 0 0 0-2.251 2.258 4.154 4.154 0 0 1-4.143 4.156c-2.283 0-4.142-1.864-4.142-4.156v-18.99c0-9.364 7.595-16.981 16.928-16.981 9.335 0 16.928 7.617 16.928 16.98v18.991c0 2.292-1.857 4.156-4.14 4.156"/>
            <path fill="#3B6FC4" d="M1751.516 92.173a3.155 3.155 0 0 0-3.148 3.157 3.156 3.156 0 0 0 3.148 3.157 3.156 3.156 0 0 0 3.147-3.157 3.155 3.155 0 0 0-3.147-3.157m0 8.212c-2.78 0-5.04-2.269-5.04-5.055 0-2.786 2.26-5.054 5.04-5.054 2.779 0 5.039 2.268 5.039 5.054 0 2.786-2.26 5.055-5.04 5.055"/>
            <path fill="#3B6FC4" d="M1753.307 95.33c0 .993-.802 1.796-1.791 1.796-.99 0-1.791-.803-1.791-1.795 0-.993.802-1.797 1.79-1.797.99 0 1.792.804 1.792 1.797M1763.275 92.173a3.155 3.155 0 0 0-3.146 3.157 3.156 3.156 0 0 0 3.146 3.157 3.156 3.156 0 0 0 3.147-3.157 3.155 3.155 0 0 0-3.147-3.157m0 8.212c-2.778 0-5.038-2.269-5.038-5.055 0-2.786 2.26-5.054 5.038-5.054 2.779 0 5.039 2.268 5.039 5.054 0 2.786-2.26 5.055-5.04 5.055"/>
            <path fill="#3B6FC4" d="M1765.066 95.33c0 .993-.8 1.796-1.79 1.796s-1.791-.803-1.791-1.795c0-.993.8-1.797 1.791-1.797.99 0 1.79.804 1.79 1.797M1412.627 199.495h217.307v-1.898h-217.307a2.287 2.287 0 0 1-2.281-2.287v-24.038a2.287 2.287 0 0 1 2.28-2.29h60.063c2.466 0 4.47-2.01 4.47-4.484V145.49c0-2.474-2.004-4.486-4.47-4.486h-58.15a2.587 2.587 0 0 1-2.58-2.588v-97.48h-1.892v97.48c0 2.473 2.006 4.484 4.472 4.484h58.15c1.424 0 2.58 1.16 2.58 2.59v19.01a2.586 2.586 0 0 1-2.58 2.588h-60.062c-2.302 0-4.173 1.877-4.173 4.185v24.038c0 2.307 1.871 4.185 4.173 4.185M1742.824 198.854h69.143c2.3 0 4.173-1.877 4.173-4.185v-42.783c0-6.52 5.288-11.824 11.788-11.824h154.82v-1.897h-154.82c-7.543 0-13.68 6.156-13.68 13.721v42.783a2.287 2.287 0 0 1-2.281 2.288h-69.143v1.897z"/>
            <path fill="#3B6FC4" d="M1417.382 139.66h20.462v-1.897h-20.462c-.67 0-2.231-.125-2.231-1.292v-1.553h-1.892v1.553c0 1.471 1.08 3.19 4.123 3.19M1441.154 139.66h3.073v-1.897h-3.073zM1478.106 152.74h1.891v-3.99h-1.891zM1478.106 164.715h1.891v-8.774h-1.891zM1408.294 33.195v5.571c0 .673.546 1.22 1.217 1.22h3.003a1.22 1.22 0 0 0 1.217-1.22v-5.571h-5.437zm-1.891 5.571v-7.469h9.22v7.47a3.116 3.116 0 0 1-3.11 3.117h-3.002a3.117 3.117 0 0 1-3.108-3.118z"/>
            <path fill="#3B6FC4" d="M1409.382 31.298h3.261v-4.363h-3.261v4.363zm-1.891 1.897h7.044v-8.157h-7.044v8.157zM1628.594 203.052h1.891v-9.011h-1.891zM1741.88 203.052h1.89v-9.011h-1.89z"/>
            <path fill="#3DBC9F" d="M1423.313 183.337c0 1.047.846 1.897 1.892 1.897 1.043 0 1.891-.85 1.891-1.897a1.895 1.895 0 0 0-1.891-1.898 1.893 1.893 0 0 0-1.892 1.898"/>
            <path fill="#3B6FC4" d="M1442.225 183.337c0 1.047.846 1.897 1.892 1.897 1.043 0 1.891-.85 1.891-1.897a1.895 1.895 0 0 0-1.891-1.898 1.893 1.893 0 0 0-1.892 1.898"/>
            <path fill="#3DBC9F" d="M1461.137 183.337c0 1.047.846 1.897 1.892 1.897 1.043 0 1.89-.85 1.89-1.897a1.894 1.894 0 0 0-1.89-1.898 1.893 1.893 0 0 0-1.892 1.898"/>
            <path fill="#3B6FC4" d="M1480.05 183.337c0 1.047.845 1.897 1.89 1.897 1.044 0 1.89-.85 1.89-1.897a1.894 1.894 0 0 0-1.89-1.898 1.893 1.893 0 0 0-1.89 1.898"/>
            <path fill="#3DBC9F" d="M1498.961 183.337c0 1.047.846 1.897 1.89 1.897 1.045 0 1.892-.85 1.892-1.897a1.894 1.894 0 0 0-1.892-1.898c-1.044 0-1.89.849-1.89 1.898"/>
            <path fill="#3B6FC4" d="M1517.872 183.337c0 1.047.847 1.897 1.891 1.897 1.045 0 1.892-.85 1.892-1.897a1.894 1.894 0 0 0-1.892-1.898 1.894 1.894 0 0 0-1.89 1.898"/>
            <path fill="#3DBC9F" d="M1536.784 183.337c0 1.047.847 1.897 1.892 1.897 1.044 0 1.891-.85 1.891-1.897a1.894 1.894 0 0 0-1.891-1.898 1.894 1.894 0 0 0-1.892 1.898"/>
            <path fill="#3B6FC4" d="M1614.674 133.144c.041.065 4.344 6.421 18.354 6.421 13.538 0 23.363-9.857 23.363-23.436 0-12.922-10.48-23.435-23.363-23.435h-45.952c-12.881 0-23.363 10.513-23.363 23.435 0 13.36 10.045 23.436 23.363 23.436 13.64 0 18.928-6.427 18.977-6.49l.283-.361h8.057l.28.43zm-52.852-17.015c0-13.969 11.329-25.332 25.254-25.332h45.952c13.926 0 25.255 11.363 25.255 25.332 0 14.68-10.622 25.332-25.255 25.332-13.056 0-18.331-5.273-19.615-6.85h-6.19c-1.371 1.475-7.253 6.85-20.147 6.85-14.397 0-25.254-10.891-25.254-25.332z"/>
            <path fill="#3B6FC4" d="M1617.746 87.939a.776.776 0 0 0-.774-.778h-13.84a.776.776 0 0 0-.773.778v2.857h15.387v-2.857zm-17.278 0a2.672 2.672 0 0 1 2.663-2.674h13.841c1.47 0 2.666 1.2 2.666 2.674v4.754h-19.17V87.94z"/>
            <path fill="#3DBC9F" d="M1623.513 113.636h7.538v-7.56c0-1.286 1.04-2.329 2.322-2.329a2.325 2.325 0 0 1 2.321 2.33v7.56h7.538a2.326 2.326 0 0 1 2.321 2.328c0 1.287-1.04 2.33-2.321 2.33h-7.538v7.56c0 1.286-1.039 2.33-2.32 2.33a2.327 2.327 0 0 1-2.323-2.33v-7.56h-7.538a2.325 2.325 0 0 1-2.32-2.33 2.326 2.326 0 0 1 2.32-2.329"/>
            <path fill="#3B6FC4" d="M1584.745 106.266a3.16 3.16 0 0 0 3.151 3.16 3.16 3.16 0 0 0 3.151-3.16 3.16 3.16 0 0 0-3.151-3.16 3.16 3.16 0 0 0-3.151 3.16m-1.891 0c0-2.789 2.262-5.058 5.042-5.058 2.781 0 5.043 2.27 5.043 5.058 0 2.789-2.262 5.058-5.043 5.058-2.78 0-5.042-2.27-5.042-5.058M1584.745 126.587a3.16 3.16 0 0 0 3.151 3.16 3.16 3.16 0 0 0 3.151-3.16 3.16 3.16 0 0 0-3.151-3.161 3.16 3.16 0 0 0-3.151 3.16m-1.891 0c0-2.788 2.262-5.057 5.042-5.057 2.781 0 5.043 2.269 5.043 5.058 0 2.788-2.262 5.058-5.043 5.058-2.78 0-5.042-2.27-5.042-5.058M1594.873 116.426a3.16 3.16 0 0 0 3.153 3.16 3.16 3.16 0 0 0 3.151-3.16 3.159 3.159 0 0 0-3.151-3.16 3.16 3.16 0 0 0-3.153 3.16m-1.89 0c0-2.789 2.263-5.057 5.043-5.057 2.78 0 5.042 2.268 5.042 5.057 0 2.788-2.262 5.058-5.042 5.058s-5.043-2.27-5.043-5.058M1574.615 116.426a3.16 3.16 0 0 0 3.153 3.16 3.158 3.158 0 0 0 3.15-3.16 3.158 3.158 0 0 0-3.15-3.16 3.16 3.16 0 0 0-3.153 3.16m-1.891 0c0-2.789 2.263-5.057 5.044-5.057 2.78 0 5.04 2.268 5.04 5.057 0 2.788-2.26 5.058-5.04 5.058-2.78 0-5.044-2.27-5.044-5.058M1609.107 85.979H1611V74.445c0-3.719-3.017-6.745-6.724-6.745h-19.83c-2.663 0-4.833-2.173-4.833-4.846s2.17-4.847 4.832-4.847h56.287c3.708 0 6.725-3.026 6.725-6.746V30.785c0-3.075-2.494-5.575-5.558-5.575h-139.12c-3.416 0-6.192 2.783-6.192 6.207v47.737c0 2.378-1.927 4.313-4.298 4.313h-81.275v1.897h81.275c3.413 0 6.19-2.785 6.19-6.21V31.417a4.31 4.31 0 0 1 4.3-4.31h139.12a3.675 3.675 0 0 1 3.666 3.678V51.26c0 2.674-2.168 4.848-4.833 4.848h-56.287c-3.707 0-6.723 3.026-6.723 6.745 0 3.718 3.016 6.744 6.723 6.744h19.831c2.664 0 4.832 2.176 4.832 4.847v11.534zM1617.538 115.965c0 8.758 7.104 15.885 15.835 15.885 8.73 0 15.834-7.127 15.834-15.885s-7.104-15.884-15.834-15.884-15.835 7.126-15.835 15.884m-1.891 0c0-9.804 7.951-17.78 17.726-17.78 9.775 0 17.726 7.976 17.726 17.78 0 9.804-7.951 17.78-17.726 17.78-9.775 0-17.726-7.976-17.726-17.78"/>
            <path fill="#3B6FC4" d="M1636.174 90.315c-.186.176-.32.392-.388.632 9.708 1.064 18.04 7.779 21.172 17.062.194-.098.367-.24.505-.424a1.39 1.39 0 0 0 .228-1.23c-1.309-4.546-3.577-8.139-6.933-10.988-5.052-4.287-10.631-5.246-13.508-5.435a1.416 1.416 0 0 0-1.076.383zm20.147 18.913l-.891.222c-2.751-9.296-11.076-16.007-20.715-16.697l-.878-.061V91.35c0-.914.38-1.797 1.045-2.42a3.362 3.362 0 0 1 2.492-.892c3.11.205 9.14 1.241 14.605 5.88 3.65 3.098 6.112 6.993 7.53 11.91a3.273 3.273 0 0 1-.535 2.895 3.286 3.286 0 0 1-2.653 1.331v-.827zM1583.93 90.315a1.37 1.37 0 0 0-1.076-.383c-2.877.19-8.456 1.148-13.51 5.435-3.354 2.85-5.623 6.442-6.931 10.988a1.39 1.39 0 0 0 .229 1.23c.137.184.31.326.504.424 3.132-9.283 11.465-15.998 21.173-17.062a1.408 1.408 0 0 0-.39-.632m-22.8 18.41a3.273 3.273 0 0 1-.534-2.896c1.417-4.916 3.88-8.812 7.529-11.91 5.466-4.639 11.496-5.675 14.606-5.88a3.32 3.32 0 0 1 3.538 3.312v1.34l-.88.062c-9.639.69-17.962 7.401-20.714 16.697l-.891-.26v.865a3.286 3.286 0 0 1-2.653-1.33M1625.137 31.298h7.564v-1.897h-7.564zM1529.001 31.298h88.333v-1.897H1529zM1415.94 206.286h7.565v-1.897h-7.565zM1431.308 206.286h88.332v-1.897h-88.332z"/>
            <path fill="#3DBC9F" d="M1547.357 68.765h6.12v-6.14h-6.12v6.14zm-1.891 1.898h9.903v-9.936h-9.903v9.936z"/>
            <path fill="#3B6FC4" d="M1527.062 94.806h8.013V86.77h-8.013z"/>
            <path fill="#D8E2F3" d="M1702.697 160.656h6.121v-6.14h-6.121v6.14zm-1.891 1.897h9.903v-9.935h-9.903v9.935z"/>
            <path fill="#3DBC9F" d="M1682.839 142.635h8.012v-8.037h-8.012zM1944.317 219.442h6.121v-6.14h-6.121v6.14zm-1.891 1.897h9.903v-9.934h-9.903v9.934z"/>
            <path fill="#3B6FC4" d="M1924.459 201.421h8.012v-8.037h-8.012z"/>
            <path fill="#D8E2F3" d="M1912.98 212.413h8.013v-8.036h-8.012zM1632.651 161.186h1.891v-4.795h-1.891zM1632.651 170.671h1.891v-4.795h-1.891zM1626.477 164.478h4.78v-1.896h-4.78zM1635.933 164.478h4.78v-1.896h-4.78z"/>
            <path fill="#3B6FC4" d="M1812.098 63.786h1.891V58.99h-1.891zM1812.098 73.27h1.891v-4.794h-1.891zM1805.925 67.078h4.78v-1.897h-4.78zM1815.381 67.078h4.78v-1.897h-4.78zM1656.845 197.437h4.202l1.292-1.297v-2.107l-1.292-1.297h-5.496v15.24h-4.525V188.52h12.12l3.719 3.728v5.674l-3.718 3.73h-6.302z"/>
            <path fill="#3DBC9F" d="M1684.966 207.976h-14.87V188.52h4.526v15.239h10.344z"/>
            <path fill="#BDD63B" d="M1692.884 201.003h5.528l-2.198-8.266h-1.132l-2.198 8.266zm11.96 6.973h-4.558l-.744-2.757h-7.79l-.743 2.757h-4.59l5.172-19.455h8.08l5.173 19.455z"/>
            <path fill="#3B6FC4" d="M1710.662 207.976v-7.135l-5.818-5.837v-6.483h4.524v4.7l3.557 3.569 3.555-3.569v-4.7h4.526v6.483l-5.819 5.837v7.135z"/>
            <path fill="#D8E2F3" d="M417.158 12.01c-6.516 0-11.82 5.32-11.82 11.856 0 6.538 5.304 11.857 11.82 11.857 6.518 0 11.82-5.32 11.82-11.857 0-6.537-5.302-11.856-11.82-11.856m0 25.61c-7.56 0-13.711-6.17-13.711-13.754 0-7.583 6.15-13.752 13.711-13.752 7.56 0 13.711 6.169 13.711 13.752 0 7.584-6.15 13.753-13.71 13.753"/>
            <path fill="#3B6FC4" d="M265.444 28.486h3.64l1.04-1.044v-6.78l-1.04-1.044h-3.64l-1.04 1.044v6.78l1.04 1.044zm-1.69-12.258h7.02l2.99 2.998v9.65l-2.99 3h-7.02l-2.99-3v-9.65l2.99-2.998z"/>
            <path fill="#3DBC9F" d="M283.275 28.486h3.64l1.04-1.044v-6.78l-1.04-1.044h-3.64l-1.04 1.044v6.78l1.04 1.044zm-1.69-12.258h7.02l2.99 2.998v9.65l-2.99 3h-7.02l-2.989-3v-9.65l2.99-2.998z"/>
            <path fill="#BDD63B" d="M301.106 28.486h3.641l1.04-1.044v-6.78l-1.04-1.044h-3.64l-1.041 1.044v6.78l1.04 1.044zm-1.69-12.258h7.02l2.991 2.998v9.65l-2.99 3h-7.02l-2.99-3v-9.65l2.99-2.998z"/>
            <path fill="#3B6FC4" d="M326.738 19.488l-7.93 12.388h-4.263l8.552-13.353-.701-.444-1.014 1.539h-7.384v-3.39h12.74z"/>
            <path fill="#3DBC9F" d="M341.711 29.66h-1.82v2.216h-3.64v-2.217h-7.28V26.4l6.526-10.171h4.264l-7.177 11.136.729.444 1.013-1.54h1.925v-2.476l.493-.783h3.148v3.259h1.819z"/>
            <path fill="#BDD63B" d="M354.863 19.619h-3.64l-1.04 1.043v.521l1.04 1.043h4.16l.52-.521v-1.043l-1.04-1.043zm-5.33-3.392h7.02l2.989 3v9.65l-2.99 2.998h-6.76l-2.99-2.999v-2.085h3.64v.651l1.04 1.044h3.381l1.04-1.044v-1.564l.987-.991-.597-.574-1.3 1.304h-5.46l-2.991-3v-3.39l2.99-3z"/>
            <path fill="#3B6FC4" d="M369.054 28.486h3.64l1.04-1.044v-6.78l-1.04-1.044h-3.64l-1.04 1.044v6.78l1.04 1.044zm-1.69-12.258h7.02l2.99 2.998v9.65l-2.99 3h-7.02l-2.99-3v-9.65l2.99-2.998zM450.201 29.66h-1.821v2.216h-3.64v-2.217h-7.28V26.4l6.526-10.171h4.264l-7.177 11.136.729.444 1.015-1.54h1.923v-2.476l.495-.783h3.145v3.259h1.821zM468.032 31.876h-13v-4.042l9.36-6.703v-.47l-1.04-1.042h-3.38l-1.04 1.043v.522h-3.639v-1.958l2.99-2.999h6.76l2.99 3v3.39l-8.868 6.365.444.573 1.507-1.07h6.916zM480.404 22.095l1.04-1.043v-.39l-1.04-1.044h-2.081l-1.04 1.044v.39l1.04 1.043h2.08zm-2.86 6.39h3.64l1.039-1.043v-.913l-1.04-1.042h-3.64l-1.04 1.042v.913l1.04 1.043zm-4.68.39v-3.78l1.69-1.696-.91-.912v-3.26l2.99-3h5.46l2.989 3v3.26l-.91.912 1.69 1.696v3.78l-2.989 3h-7.02l-2.99-3z"/>
            <path fill="#D8E2F3" d="M424.25 24.815h-8.037v-8.22h1.89v6.322h6.147z"/>
            <path fill="#BDD63B" d="M386.482 163.53h1.892v-4.795h-1.892zM386.482 173.015h1.892v-4.794h-1.892zM380.309 166.825h4.78v-1.897h-4.78zM389.766 166.825h4.78v-1.897h-4.78zM299.982 70.464l-1.338-1.341 3.396-3.407 1.337 1.343z"/>
            <path fill="#3DBC9F" d="M290.417 80.059l-1.337-1.341 6.085-6.105 1.336 1.341zM296.684 83.15l-1.338-1.342 15.702-15.751 1.338 1.342z"/>
            <path fill="#3B6FC4" d="M302.377 88.533l-1.338-1.342 15.376-15.423 1.338 1.34z"/>
            <path fill="#3B6FC4" d="M294.355 110.598a4.154 4.154 0 0 1 4.143 4.155c0 1.245 1.01 2.26 2.251 2.26 1.24 0 2.25-1.015 2.25-2.26v-18.99c0-8.318-6.745-15.084-15.038-15.084-8.29 0-15.037 6.766-15.037 15.083v18.991c0 1.245 1.01 2.26 2.251 2.26a2.258 2.258 0 0 0 2.252-2.26 4.153 4.153 0 0 1 4.142-4.155c2.284 0 4.14 1.864 4.14 4.155a2.26 2.26 0 0 0 2.252 2.26 2.258 2.258 0 0 0 2.251-2.26 4.154 4.154 0 0 1 4.143-4.155m6.394 8.31a4.153 4.153 0 0 1-4.143-4.155 2.257 2.257 0 0 0-2.25-2.258 2.257 2.257 0 0 0-2.252 2.258 4.153 4.153 0 0 1-4.143 4.156c-2.284 0-4.142-1.864-4.142-4.156a2.257 2.257 0 0 0-2.25-2.258 2.257 2.257 0 0 0-2.251 2.258 4.154 4.154 0 0 1-4.143 4.156c-2.283 0-4.142-1.864-4.142-4.156v-18.99c0-9.364 7.595-16.981 16.928-16.981 9.335 0 16.928 7.617 16.928 16.98v18.991c0 2.292-1.857 4.156-4.14 4.156"/>
            <path fill="#3B6FC4" d="M282.082 92.173a3.155 3.155 0 0 0-3.148 3.157 3.156 3.156 0 0 0 3.148 3.157 3.156 3.156 0 0 0 3.147-3.157 3.155 3.155 0 0 0-3.147-3.157m0 8.212c-2.78 0-5.039-2.269-5.039-5.055 0-2.786 2.26-5.054 5.039-5.054s5.039 2.268 5.039 5.054c0 2.786-2.26 5.055-5.04 5.055"/>
            <path fill="#3B6FC4" d="M283.873 95.33c0 .993-.802 1.796-1.791 1.796-.99 0-1.791-.803-1.791-1.795 0-.993.802-1.797 1.79-1.797.99 0 1.792.804 1.792 1.797M293.84 92.173a3.155 3.155 0 0 0-3.145 3.157 3.156 3.156 0 0 0 3.146 3.157 3.156 3.156 0 0 0 3.147-3.157 3.155 3.155 0 0 0-3.147-3.157m0 8.212c-2.778 0-5.038-2.269-5.038-5.055 0-2.786 2.26-5.054 5.038-5.054 2.779 0 5.039 2.268 5.039 5.054 0 2.786-2.26 5.055-5.04 5.055"/>
            <path fill="#3B6FC4" d="M295.632 95.33c0 .993-.8 1.796-1.79 1.796s-1.791-.803-1.791-1.795c0-.993.8-1.797 1.791-1.797.99 0 1.79.804 1.79 1.797M-56.807 199.495H160.5v-1.898H-56.807a2.287 2.287 0 0 1-2.281-2.287v-24.038a2.288 2.288 0 0 1 2.28-2.29H3.256c2.466 0 4.47-2.01 4.47-4.484V145.49c0-2.474-2.004-4.486-4.47-4.486h-58.15a2.587 2.587 0 0 1-2.58-2.588v-97.48h-1.892v97.48c0 2.473 2.006 4.484 4.472 4.484h58.15c1.424 0 2.58 1.16 2.58 2.59v19.01a2.586 2.586 0 0 1-2.58 2.588h-60.062c-2.302 0-4.173 1.877-4.173 4.185v24.038c0 2.307 1.871 4.185 4.173 4.185M273.39 198.854h69.143c2.3 0 4.173-1.877 4.173-4.185v-42.783c0-6.52 5.288-11.824 11.788-11.824h154.82v-1.897h-154.82c-7.543 0-13.68 6.156-13.68 13.721v42.783a2.287 2.287 0 0 1-2.281 2.288H273.39v1.897z"/>
            <path fill="#3B6FC4" d="M8.672 152.74h1.891v-3.99H8.672zM8.672 164.715h1.891v-8.774H8.672zM159.16 203.052h1.891v-9.011h-1.891zM272.445 203.052h1.892v-9.011h-1.892zM10.615 183.337c0 1.047.846 1.897 1.892 1.897 1.043 0 1.89-.85 1.89-1.897a1.894 1.894 0 0 0-1.89-1.898 1.893 1.893 0 0 0-1.892 1.898"/>
            <path fill="#3DBC9F" d="M29.527 183.337c0 1.047.846 1.897 1.89 1.897 1.045 0 1.892-.85 1.892-1.897a1.894 1.894 0 0 0-1.892-1.898c-1.044 0-1.89.849-1.89 1.898"/>
            <path fill="#3B6FC4" d="M48.438 183.337c0 1.047.847 1.897 1.892 1.897 1.044 0 1.891-.85 1.891-1.897a1.894 1.894 0 0 0-1.891-1.898 1.894 1.894 0 0 0-1.892 1.898"/>
            <path fill="#3DBC9F" d="M67.35 183.337c0 1.047.847 1.897 1.892 1.897 1.044 0 1.891-.85 1.891-1.897a1.894 1.894 0 0 0-1.891-1.898 1.894 1.894 0 0 0-1.892 1.898"/>
            <path fill="#3B6FC4" d="M145.24 133.144c.041.065 4.344 6.421 18.354 6.421 13.538 0 23.363-9.857 23.363-23.436 0-12.922-10.48-23.435-23.363-23.435h-45.952c-12.881 0-23.363 10.513-23.363 23.435 0 13.36 10.045 23.436 23.363 23.436 13.64 0 18.928-6.427 18.977-6.49l.283-.361h8.057l.28.43zm-52.852-17.015c0-13.969 11.329-25.332 25.254-25.332h45.952c13.926 0 25.255 11.363 25.255 25.332 0 14.68-10.622 25.332-25.255 25.332-13.056 0-18.331-5.273-19.615-6.85h-6.19c-1.371 1.475-7.253 6.85-20.147 6.85-14.397 0-25.254-10.891-25.254-25.332z"/>
            <path fill="#3B6FC4" d="M148.312 87.939a.776.776 0 0 0-.774-.778h-13.84a.776.776 0 0 0-.773.778v2.857h15.387v-2.857zm-17.278 0a2.672 2.672 0 0 1 2.663-2.674h13.841c1.47 0 2.666 1.2 2.666 2.674v4.754h-19.17V87.94z"/>
            <path fill="#3DBC9F" d="M154.08 113.636h7.537v-7.56c0-1.286 1.04-2.329 2.322-2.329a2.325 2.325 0 0 1 2.321 2.33v7.56h7.538a2.326 2.326 0 0 1 2.321 2.328c0 1.287-1.04 2.33-2.321 2.33h-7.538v7.56c0 1.286-1.039 2.33-2.32 2.33a2.327 2.327 0 0 1-2.323-2.33v-7.56h-7.538a2.325 2.325 0 0 1-2.32-2.33 2.326 2.326 0 0 1 2.32-2.329"/>
            <path fill="#3B6FC4" d="M115.311 106.266a3.16 3.16 0 0 0 3.151 3.16 3.16 3.16 0 0 0 3.151-3.16 3.16 3.16 0 0 0-3.15-3.16 3.16 3.16 0 0 0-3.152 3.16m-1.891 0c0-2.789 2.262-5.058 5.042-5.058 2.782 0 5.043 2.27 5.043 5.058 0 2.789-2.261 5.058-5.043 5.058-2.78 0-5.042-2.27-5.042-5.058M115.311 126.587a3.16 3.16 0 0 0 3.151 3.16 3.16 3.16 0 0 0 3.151-3.16 3.16 3.16 0 0 0-3.15-3.161 3.16 3.16 0 0 0-3.152 3.16m-1.891 0c0-2.788 2.262-5.057 5.042-5.057 2.782 0 5.043 2.269 5.043 5.058 0 2.788-2.261 5.058-5.043 5.058-2.78 0-5.042-2.27-5.042-5.058M125.44 116.426a3.16 3.16 0 0 0 3.152 3.16 3.16 3.16 0 0 0 3.151-3.16 3.159 3.159 0 0 0-3.151-3.16 3.16 3.16 0 0 0-3.152 3.16m-1.89 0c0-2.789 2.262-5.057 5.042-5.057s5.042 2.268 5.042 5.057c0 2.788-2.262 5.058-5.042 5.058s-5.043-2.27-5.043-5.058M105.181 116.426a3.16 3.16 0 0 0 3.153 3.16 3.158 3.158 0 0 0 3.15-3.16 3.158 3.158 0 0 0-3.15-3.16 3.16 3.16 0 0 0-3.153 3.16m-1.891 0c0-2.789 2.263-5.057 5.044-5.057 2.78 0 5.041 2.268 5.041 5.057 0 2.788-2.261 5.058-5.041 5.058-2.78 0-5.044-2.27-5.044-5.058M139.673 85.979h1.892V74.445c0-3.719-3.017-6.745-6.724-6.745h-19.83c-2.663 0-4.833-2.173-4.833-4.846s2.17-4.847 4.832-4.847h56.287c3.708 0 6.725-3.026 6.725-6.746V30.785c0-3.075-2.494-5.575-5.558-5.575H33.344c-3.416 0-6.192 2.783-6.192 6.207v47.737c0 2.378-1.927 4.313-4.298 4.313h-81.275v1.897h81.275c3.413 0 6.19-2.785 6.19-6.21V31.417a4.31 4.31 0 0 1 4.3-4.31h139.12a3.675 3.675 0 0 1 3.667 3.678V51.26c0 2.674-2.169 4.848-4.834 4.848H115.01c-3.707 0-6.723 3.026-6.723 6.745 0 3.718 3.016 6.744 6.723 6.744h19.831c2.664 0 4.832 2.176 4.832 4.847v11.534zM148.104 115.965c0 8.758 7.104 15.885 15.835 15.885 8.73 0 15.834-7.127 15.834-15.885s-7.104-15.884-15.834-15.884-15.835 7.126-15.835 15.884m-1.891 0c0-9.804 7.951-17.78 17.726-17.78 9.775 0 17.726 7.976 17.726 17.78 0 9.804-7.951 17.78-17.726 17.78-9.775 0-17.726-7.976-17.726-17.78"/>
            <path fill="#3B6FC4" d="M166.74 90.315c-.186.176-.32.392-.388.632 9.708 1.064 18.04 7.779 21.172 17.062.194-.098.367-.24.505-.424a1.39 1.39 0 0 0 .228-1.23c-1.309-4.546-3.577-8.139-6.933-10.988-5.052-4.287-10.631-5.246-13.508-5.435a1.416 1.416 0 0 0-1.076.383zm20.147 18.913l-.891.222c-2.751-9.296-11.076-16.007-20.715-16.697l-.878-.061V91.35c0-.914.38-1.797 1.045-2.42a3.362 3.362 0 0 1 2.492-.892c3.11.205 9.14 1.241 14.605 5.88 3.65 3.098 6.112 6.993 7.53 11.91a3.273 3.273 0 0 1-.535 2.895 3.286 3.286 0 0 1-2.653 1.331v-.827zM114.496 90.315a1.37 1.37 0 0 0-1.076-.383c-2.877.19-8.456 1.148-13.51 5.435-3.354 2.85-5.623 6.442-6.931 10.988a1.39 1.39 0 0 0 .229 1.23c.137.184.31.326.504.424 3.132-9.283 11.465-15.998 21.173-17.062a1.408 1.408 0 0 0-.39-.632m-22.8 18.41a3.273 3.273 0 0 1-.534-2.896c1.417-4.916 3.88-8.812 7.529-11.91 5.466-4.639 11.496-5.675 14.606-5.88a3.32 3.32 0 0 1 3.538 3.312v1.34l-.88.062c-9.639.69-17.962 7.401-20.714 16.697l-.891-.26v.865a3.286 3.286 0 0 1-2.653-1.33M155.703 31.298h7.564v-1.897h-7.564zM59.567 31.298H147.9v-1.897H59.567zM-38.126 206.286h88.332v-1.897h-88.332z"/>
            <path fill="#3DBC9F" d="M77.923 68.765h6.12v-6.14h-6.12v6.14zm-1.891 1.898h9.903v-9.936h-9.903v9.936z"/>
            <path fill="#3B6FC4" d="M57.628 94.806h8.013V86.77h-8.013z"/>
            <path fill="#D8E2F3" d="M233.263 160.656h6.121v-6.14h-6.121v6.14zm-1.891 1.897h9.903v-9.935h-9.903v9.935z"/>
            <path fill="#3DBC9F" d="M213.405 142.635h8.012v-8.037h-8.012zM474.883 219.442h6.121v-6.14h-6.121v6.14zm-1.891 1.897h9.903v-9.934h-9.903v9.934z"/>
            <path fill="#3B6FC4" d="M455.025 201.421h8.012v-8.037h-8.012z"/>
            <path fill="#D8E2F3" d="M443.547 212.413h8.012v-8.036h-8.012zM163.217 161.186h1.891v-4.795h-1.891zM163.217 170.671h1.891v-4.795h-1.891zM157.043 164.478h4.78v-1.896h-4.78zM166.5 164.478h4.78v-1.896h-4.78z"/>
            <path fill="#3B6FC4" d="M342.664 63.786h1.891V58.99h-1.891zM342.664 73.27h1.891v-4.794h-1.891zM336.491 67.078h4.78v-1.897h-4.78zM345.947 67.078h4.78v-1.897h-4.78zM187.41 197.437h4.203l1.292-1.297v-2.107l-1.292-1.297h-5.496v15.24h-4.525V188.52h12.12l3.719 3.728v5.674l-3.718 3.73h-6.302z"/>
            <path fill="#3DBC9F" d="M215.532 207.976h-14.87V188.52h4.526v15.239h10.344z"/>
            <path fill="#BDD63B" d="M223.45 201.003h5.528l-2.198-8.266h-1.132l-2.198 8.266zm11.96 6.973h-4.557l-.745-2.757h-7.79l-.743 2.757h-4.59l5.172-19.455h8.081l5.172 19.455z"/>
            <path fill="#3B6FC4" d="M241.228 207.976v-7.135l-5.818-5.837v-6.483h4.524v4.7l3.557 3.569 3.555-3.569v-4.7h4.526v6.483l-5.819 5.837v7.135z"/>
            <path fill="#BDD63B" d="M2105.358 163.585h2.076v-5.189h-2.076zM2105.358 172.925h2.076v-5.19h-2.076zM2109.51 166.698h5.188v-2.075h-5.189zM2099.132 166.698h5.189v-2.075h-5.189zM2217.863 71.226l-1.467-1.465 3.723-3.723 1.466 1.467z"/>
            <path fill="#3DBC9F" d="M2208.366 79.528l-1.31-1.308 5.956-5.956 1.309 1.308zM2214.586 82.642l-1.303-1.304 15.301-15.3 1.303 1.303z"/>
            <path fill="#3B6FC4" d="M2219.8 88.868l-1.328-1.33 15.274-15.274 1.33 1.328z"/>
            <g>
                <path fill="#3B6FC4" d="M2211.895 110.598a4.154 4.154 0 0 1 4.143 4.155c0 1.245 1.01 2.26 2.252 2.26 1.24 0 2.25-1.015 2.25-2.26v-18.99c0-8.318-6.745-15.084-15.038-15.084-8.29 0-15.037 6.766-15.037 15.083v18.991a2.258 2.258 0 0 0 2.252 2.26 2.258 2.258 0 0 0 2.25-2.26 4.153 4.153 0 0 1 4.144-4.155c2.283 0 4.14 1.864 4.14 4.155a2.26 2.26 0 0 0 2.251 2.26 2.258 2.258 0 0 0 2.252-2.26c0-2.291 1.858-4.155 4.141-4.155m6.395 8.31a4.153 4.153 0 0 1-4.142-4.155 2.258 2.258 0 0 0-2.253-2.258 2.256 2.256 0 0 0-2.25 2.258 4.153 4.153 0 0 1-4.143 4.156c-2.284 0-4.141-1.864-4.141-4.156a2.257 2.257 0 0 0-2.25-2.258 2.257 2.257 0 0 0-2.252 2.258c0 2.292-1.86 4.156-4.142 4.156a4.154 4.154 0 0 1-4.143-4.156v-18.99c0-9.364 7.595-16.981 16.928-16.981 9.335 0 16.929 7.617 16.929 16.98v18.991c0 2.292-1.857 4.156-4.14 4.156"/>
                <path fill="#3B6FC4" d="M2199.623 92.173a3.155 3.155 0 0 0-3.147 3.157 3.156 3.156 0 0 0 3.147 3.157 3.156 3.156 0 0 0 3.146-3.157 3.155 3.155 0 0 0-3.146-3.157m0 8.212c-2.779 0-5.039-2.269-5.039-5.055 0-2.786 2.26-5.054 5.039-5.054s5.038 2.268 5.038 5.054c0 2.786-2.259 5.055-5.038 5.055"/>
                <path fill="#3B6FC4" d="M2201.413 95.33c0 .993-.8 1.796-1.79 1.796s-1.791-.803-1.791-1.795c0-.993.802-1.797 1.791-1.797.99 0 1.79.804 1.79 1.797M2211.382 92.173a3.155 3.155 0 0 0-3.146 3.157 3.156 3.156 0 0 0 3.146 3.157 3.156 3.156 0 0 0 3.148-3.157 3.155 3.155 0 0 0-3.148-3.157m0 8.212c-2.778 0-5.037-2.269-5.037-5.055 0-2.786 2.26-5.054 5.037-5.054 2.78 0 5.04 2.268 5.04 5.054 0 2.786-2.26 5.055-5.04 5.055"/>
                <path fill="#3B6FC4" d="M2213.173 95.33c0 .993-.802 1.796-1.79 1.796-.99 0-1.79-.803-1.79-1.795 0-.993.8-1.797 1.79-1.797.988 0 1.79.804 1.79 1.797M2550.893 199.495h-217.308v-1.898h217.308a2.286 2.286 0 0 0 2.28-2.287v-24.038a2.286 2.286 0 0 0-2.28-2.29h-60.064c-2.464 0-4.47-2.01-4.47-4.484V145.49c0-2.474 2.006-4.486 4.47-4.486h58.152c1.422 0 2.58-1.16 2.58-2.588v-97.48h1.89v97.48c0 2.473-2.006 4.484-4.47 4.484h-58.152a2.587 2.587 0 0 0-2.579 2.59v19.01a2.586 2.586 0 0 0 2.58 2.588h60.063c2.3 0 4.171 1.877 4.171 4.185v24.038c0 2.307-1.87 4.185-4.17 4.185M2220.694 198.854h-69.142a4.185 4.185 0 0 1-4.174-4.185v-42.783c0-6.52-5.287-11.824-11.788-11.824h-153.722v-1.897h153.722c7.544 0 13.68 6.156 13.68 13.721v42.783a2.287 2.287 0 0 0 2.282 2.288h69.142v1.897z"/>
                <path fill="#3B6FC4" d="M2483.521 152.74h1.892v-3.99h-1.892zM2483.521 164.715h1.892v-8.774h-1.892zM2333.034 203.052h1.89v-9.011h-1.89zM2219.748 203.052h1.891v-9.011h-1.891zM2245.293 197.756v6.561l-3.76 3.771h-8.83l-3.76-3.771V192.18l3.76-3.773h8.83l3.76 3.773v2.787h-4.578v-.984l-1.309-1.312h-4.577l-1.309 1.312v8.529l1.309 1.313h4.577l1.309-1.313v-.491l1.242-1.247-.751-.722-1.636 1.64h-3.107v-3.936z"/>
                <path fill="#3DBC9F" d="M2253.467 201.036h5.592l-2.223-8.365h-1.144l-2.225 8.365zm12.1 7.052h-4.611l-.752-2.788h-7.882l-.751 2.788h-4.644l5.233-19.681h8.175l5.232 19.681z"/>
                <path fill="#BDD63B" d="M2271.616 194.968l-.751.722 1.241 1.246v11.153h-4.577v-19.682h3.598l6.377 6.396 6.377-6.396h3.596v19.682h-4.578v-11.153l1.242-1.246-.753-.722-5.884 5.905z"/>
                <path fill="#3B6FC4" d="M2306.116 208.088h-15.37v-19.68h15.37v4.263h-10.792v3.444h9.484v4.265h-9.484v3.445h10.792z"/>
                <path fill="#3DBC9F" d="M2315.272 197.427h4.25l1.31-1.311v-2.133l-1.31-1.312h-5.559v15.418h-4.578v-19.682h12.263l3.76 3.773v5.74l-2.778 2.789 2.779 2.787v4.593h-4.578V205.3l-3.597-3.607h-1.962z"/>
                <path fill="#D8E2F3" d="M2019.83 37.62c-7.56 0-13.71-6.17-13.71-13.754 0-7.582 6.15-13.752 13.71-13.752 2.668 0 5.254.769 7.477 2.223l-1.032 1.59a11.742 11.742 0 0 0-6.444-1.917c-6.518 0-11.82 5.32-11.82 11.856 0 6.538 5.302 11.857 11.82 11.857 2.715 0 5.368-.946 7.47-2.666l1.193 1.468a13.71 13.71 0 0 1-8.663 3.095"/>
                <path fill="#D8E2F3" d="M2019.83 31.414c-4.15 0-7.523-3.386-7.523-7.547 0-4.162 3.374-7.548 7.524-7.548 1.8 0 3.543.648 4.906 1.825l-1.234 1.438a5.616 5.616 0 0 0-3.672-1.365c-3.107 0-5.634 2.533-5.634 5.65 0 3.116 2.527 5.65 5.634 5.65a5.581 5.581 0 0 0 3.982-1.656l1.337 1.343a7.46 7.46 0 0 1-5.32 2.21M2019.83 61.639c-6.517 0-11.82 5.318-11.82 11.856s5.303 11.856 11.82 11.856 11.82-5.318 11.82-11.856-5.303-11.856-11.82-11.856m0 25.608c-7.56 0-13.71-6.17-13.71-13.752 0-7.584 6.15-13.754 13.71-13.754 7.56 0 13.71 6.17 13.71 13.754 0 7.583-6.15 13.752-13.71 13.752"/>
                <path fill="#D8E2F3" d="M2019.83 67.845c-3.106 0-5.633 2.533-5.633 5.65 0 3.116 2.527 5.65 5.634 5.65 3.105 0 5.632-2.534 5.632-5.65 0-3.117-2.527-5.65-5.632-5.65m0 13.198c-4.15 0-7.524-3.387-7.524-7.547 0-4.163 3.374-7.549 7.524-7.549 4.149 0 7.524 3.386 7.524 7.549 0 4.16-3.375 7.547-7.524 7.547"/>
                <path fill="#3DBC9F" d="M2060.669 62.524a11.69 11.69 0 0 0-4.488-.884l-.035-1.688.002-.21h.006c1.834 0 3.58.348 5.233 1.027l-.718 1.755zm-12.867 2.608l-1.34-1.337a13.65 13.65 0 0 1 4.434-2.995l.73 1.75a11.795 11.795 0 0 0-3.824 2.582zm19.285 3.785a11.778 11.778 0 0 0-2.578-3.834l1.333-1.347a13.71 13.71 0 0 1 2.99 4.446l-1.745.735zm-24.618 4.605l.006-.12a13.484 13.484 0 0 1 1.024-5.141l1.748.722a11.83 11.83 0 0 0-.885 4.513l-1.893.026zm26.383 5.236l-1.747-.727c.595-1.438.895-2.965.895-4.535l1.892-.053v.053c0 1.82-.35 3.59-1.04 5.262zm-22.351 4.477a13.675 13.675 0 0 1-2.983-4.453l1.746-.73a11.81 11.81 0 0 0 2.571 3.84l-1.334 1.343zm14.939 2.967l-.727-1.753a11.803 11.803 0 0 0 3.83-2.573l1.338 1.34a13.725 13.725 0 0 1-4.441 2.986zm-5.246 1.047h-.013c-1.811 0-3.57-.348-5.232-1.037l.722-1.753a11.72 11.72 0 0 0 4.51.893l.013 1.897z"/>
                <path fill="#BDD63B" d="M2095.656 62.524a11.689 11.689 0 0 0-4.487-.884l-.036-1.688.002-.21h.006c1.834 0 3.582.348 5.233 1.027l-.718 1.755zm-12.867 2.608l-1.34-1.337a13.65 13.65 0 0 1 4.434-2.995l.73 1.75a11.795 11.795 0 0 0-3.824 2.582zm19.285 3.785a11.758 11.758 0 0 0-2.578-3.834l1.333-1.347a13.71 13.71 0 0 1 2.99 4.446l-1.745.735zm-24.618 4.605l.006-.12a13.484 13.484 0 0 1 1.024-5.141l1.748.722a11.83 11.83 0 0 0-.885 4.513l-1.893.026zm26.385 5.236l-1.749-.727c.595-1.438.895-2.965.895-4.535l1.892-.053v.053c0 1.82-.35 3.59-1.038 5.262zm-22.353 4.477a13.675 13.675 0 0 1-2.982-4.453l1.745-.73a11.81 11.81 0 0 0 2.571 3.84l-1.334 1.343zm14.939 2.967l-.727-1.753a11.803 11.803 0 0 0 3.83-2.573l1.338 1.34a13.725 13.725 0 0 1-4.441 2.986zm-5.246 1.047h-.012c-1.812 0-3.571-.348-5.232-1.037l.72-1.753c1.432.593 2.95.893 4.512.893l.012 1.897z"/>
                <path fill="#3B6FC4" d="M2026.999 24.563v-6.524h9.497v2.693h-6.607v1.14h4.852l2.375 2.38v3.831l-2.375 2.383h-5.574l-2.375-2.383V26.22h2.89v.725l.827.829h2.891l.824-.83v-1.551l-.824-.83zM2051.068 28.705h-1.445v1.76h-2.89v-1.76h-5.783v-2.587l5.184-8.08h3.386l-5.699 8.845.58.352.803-1.222h1.528v-1.968l.392-.622h2.499v2.59h1.445z"/>
                <path fill="#3DBC9F" d="M2502.381 183.337a1.894 1.894 0 0 1-1.89 1.897 1.895 1.895 0 0 1-1.891-1.897c0-1.05.847-1.898 1.891-1.898s1.89.849 1.89 1.898"/>
                <path fill="#3B6FC4" d="M2483.47 183.337a1.895 1.895 0 0 1-1.891 1.897 1.895 1.895 0 0 1-1.891-1.897c0-1.05.847-1.898 1.891-1.898s1.891.849 1.891 1.898"/>
                <path fill="#3DBC9F" d="M2464.558 183.337a1.895 1.895 0 0 1-1.891 1.897 1.895 1.895 0 0 1-1.891-1.897c0-1.05.847-1.898 1.891-1.898s1.891.849 1.891 1.898"/>
                <path fill="#3B6FC4" d="M2445.646 183.337a1.895 1.895 0 0 1-1.891 1.897 1.895 1.895 0 0 1-1.891-1.897c0-1.05.847-1.898 1.891-1.898s1.891.849 1.891 1.898"/>
                <path fill="#3DBC9F" d="M2426.734 183.337a1.894 1.894 0 0 1-1.891 1.897 1.895 1.895 0 0 1-1.891-1.897c0-1.05.847-1.898 1.891-1.898 1.045 0 1.891.849 1.891 1.898"/>
                <path fill="#3B6FC4" d="M2349.126 132.715h8.056l.283.36c.051.063 5.339 6.49 18.977 6.49 13.318 0 23.363-10.076 23.363-23.437 0-12.92-10.48-23.435-23.363-23.435h-45.953c-12.88 0-23.363 10.514-23.363 23.435 0 13.58 9.827 23.436 23.363 23.436 14.012 0 18.314-6.356 18.356-6.42l.28-.43zm27.316 8.746c-12.893 0-18.775-5.374-20.147-6.85h-6.187c-1.286 1.576-6.562 6.85-19.619 6.85-14.633 0-25.254-10.654-25.254-25.333 0-13.968 11.329-25.332 25.254-25.332h45.953c13.925 0 25.254 11.364 25.254 25.332 0 14.442-10.856 25.333-25.254 25.333z"/>
                <path fill="#3B6FC4" d="M2345.772 90.796h15.388V87.94a.776.776 0 0 0-.773-.778h-13.841a.776.776 0 0 0-.774.778v2.857zm17.279 1.898h-19.17v-4.755a2.673 2.673 0 0 1 2.665-2.674h13.841c1.47 0 2.664 1.2 2.664 2.674v4.755z"/>
                <path fill="#3DBC9F" d="M2340.005 113.636h-7.537v-7.56c0-1.286-1.04-2.329-2.323-2.329a2.325 2.325 0 0 0-2.32 2.33v7.56h-7.537a2.326 2.326 0 0 0-2.323 2.328c0 1.287 1.04 2.33 2.323 2.33h7.536v7.56c0 1.286 1.04 2.33 2.321 2.33a2.326 2.326 0 0 0 2.323-2.33v-7.56h7.537a2.325 2.325 0 0 0 2.321-2.33 2.326 2.326 0 0 0-2.321-2.329"/>
                <path fill="#3B6FC4" d="M2375.622 103.105a3.16 3.16 0 0 0-3.151 3.16 3.16 3.16 0 0 0 3.151 3.162 3.16 3.16 0 0 0 3.151-3.161 3.16 3.16 0 0 0-3.15-3.161m0 8.219c-2.781 0-5.043-2.27-5.043-5.058 0-2.789 2.262-5.058 5.042-5.058s5.043 2.269 5.043 5.058c0 2.789-2.263 5.058-5.043 5.058M2375.622 123.426a3.16 3.16 0 0 0-3.151 3.16 3.16 3.16 0 0 0 3.151 3.161 3.16 3.16 0 0 0 3.151-3.16 3.16 3.16 0 0 0-3.15-3.161m0 8.218c-2.781 0-5.043-2.269-5.043-5.058 0-2.788 2.262-5.058 5.042-5.058s5.043 2.27 5.043 5.058c0 2.79-2.263 5.058-5.043 5.058M2365.492 113.266a3.159 3.159 0 0 0-3.15 3.16 3.16 3.16 0 0 0 3.15 3.16 3.16 3.16 0 0 0 3.153-3.16 3.16 3.16 0 0 0-3.153-3.16m0 8.217c-2.78 0-5.042-2.268-5.042-5.058 0-2.788 2.262-5.056 5.042-5.056s5.044 2.268 5.044 5.056c0 2.79-2.263 5.058-5.044 5.058M2385.752 113.266a3.159 3.159 0 0 0-3.151 3.16 3.16 3.16 0 0 0 3.15 3.16 3.16 3.16 0 0 0 3.152-3.16 3.159 3.159 0 0 0-3.151-3.16m0 8.217c-2.78 0-5.043-2.268-5.043-5.058 0-2.788 2.263-5.056 5.043-5.056 2.78 0 5.042 2.268 5.042 5.056 0 2.79-2.262 5.058-5.042 5.058M2354.412 85.979h-1.891V74.445c0-3.719 3.015-6.745 6.723-6.745h19.83c2.664 0 4.832-2.173 4.832-4.846s-2.168-4.847-4.832-4.847h-56.287c-3.707 0-6.724-3.026-6.724-6.746V30.785c0-3.075 2.493-5.575 5.557-5.575h139.122c3.414 0 6.19 2.783 6.19 6.207v47.737c0 2.378 1.929 4.313 4.299 4.313h81.274v1.897h-81.274c-3.413 0-6.19-2.785-6.19-6.21V31.417a4.31 4.31 0 0 0-4.3-4.31h-139.12a3.675 3.675 0 0 0-3.667 3.678V51.26c0 2.674 2.168 4.848 4.833 4.848h56.287c3.707 0 6.724 3.026 6.724 6.745 0 3.718-3.017 6.744-6.724 6.744h-19.83c-2.664 0-4.832 2.176-4.832 4.847v11.534zM2330.146 100.082c-8.732 0-15.836 7.126-15.836 15.884 0 8.757 7.104 15.884 15.836 15.884 8.73 0 15.835-7.127 15.835-15.884 0-8.758-7.104-15.884-15.835-15.884m0 33.664c-9.775 0-17.726-7.976-17.726-17.78 0-9.806 7.951-17.782 17.726-17.782 9.774 0 17.725 7.976 17.725 17.782 0 9.804-7.951 17.78-17.725 17.78"/>
                <path fill="#3B6FC4" d="M2326.367 89.928c-.032 0-.065.001-.097.004-2.878.189-8.457 1.148-13.51 5.436-3.355 2.848-5.623 6.442-6.932 10.987-.124.425-.04.873.228 1.23.137.183.31.327.505.425 3.132-9.285 11.465-16 21.173-17.064a1.415 1.415 0 0 0-.39-.631 1.416 1.416 0 0 0-.977-.387zm-19.17 20.128a3.286 3.286 0 0 1-2.652-1.331 3.276 3.276 0 0 1-.535-2.897c1.418-4.917 3.88-8.812 7.53-11.91 5.465-4.637 11.495-5.674 14.604-5.88a3.364 3.364 0 0 1 2.492.893 3.331 3.331 0 0 1 1.046 2.419v1.341l-.878.063c-9.64.688-17.965 7.4-20.715 16.695l-.891-.22v.827zM2379.2 90.946c9.708 1.065 18.04 7.78 21.172 17.064.195-.1.369-.242.506-.425.268-.357.351-.805.229-1.23-1.31-4.545-3.578-8.14-6.933-10.987-5.054-4.288-10.633-5.247-13.51-5.436a1.38 1.38 0 0 0-1.076.383 1.426 1.426 0 0 0-.389.631m20.536 19.11v-.867l-.89.26c-2.75-9.295-11.076-16.006-20.716-16.695l-.878-.063v-1.34c0-.915.382-1.797 1.047-2.421a3.323 3.323 0 0 1 2.491-.892c3.109.207 9.14 1.243 14.605 5.881 3.65 3.097 6.113 6.993 7.53 11.91a3.276 3.276 0 0 1-.536 2.896 3.286 3.286 0 0 1-2.653 1.331M2330.817 31.298h7.565v-1.897h-7.565zM2346.185 31.298h88.332v-1.897h-88.332zM2443.879 206.286h88.332v-1.897h-88.332z"/>
                <path fill="#3DBC9F" d="M2410.041 68.765h6.121v-6.14h-6.12v6.14zm-1.891 1.898h9.903v-9.936h-9.903v9.936z"/>
                <path fill="#3B6FC4" d="M2428.445 94.806h8.011V86.77h-8.011z"/>
                <path fill="#D8E2F3" d="M2254.7 160.656h6.122v-6.14h-6.121v6.14zm-1.89 1.897h9.903v-9.935h-9.903v9.935z"/>
                <path fill="#3DBC9F" d="M2272.667 142.635h8.013v-8.037h-8.013zM2013.08 219.442h6.122v-6.14h-6.121v6.14zm-1.89 1.897h9.903v-9.934h-9.903v9.934z"/>
                <path fill="#3B6FC4" d="M2031.047 201.421h8.013v-8.037h-8.013z"/>
                <path fill="#D8E2F3" d="M2042.525 212.413h8.013v-8.036h-8.013zM2328.976 161.186h1.892v-4.795h-1.892zM2328.976 170.671h1.892v-4.795h-1.892zM2332.26 164.478h4.781v-1.896h-4.78zM2322.805 164.478h4.78v-1.896h-4.78z"/>
                <path fill="#3B6FC4" d="M2161.771 63.786h1.892V58.99h-1.892zM2161.771 73.27h1.892v-4.794h-1.892zM2165.056 67.078h4.78v-1.897h-4.78zM2155.599 67.078h4.78v-1.897h-4.78z"/>
            </g>
        </g>
    </g>
</svg>
