<svg xmlns="http://www.w3.org/2000/svg" width="160" height="37" viewBox="0 0 160 37">
    <g fill="#FFF" fill-rule="evenodd">
        <path d="M72.05 29.23c0 1.05-.358 1.942-1.072 2.673-.713.731-1.59 1.097-2.63 1.097H57.272v-2.565h11.074c.327 0 .607-.118.842-.355.234-.237.352-.52.352-.85v-3.307H57.7c-1.02 0-1.891-.365-2.615-1.097A3.62 3.62 0 0 1 54 22.184V11.74c0-1.03.362-1.91 1.086-2.642C55.81 8.366 56.682 8 57.702 8h10.645c1.04 0 1.918.366 2.631 1.097.714.731 1.071 1.612 1.071 2.642v17.49zm-14.348-5.84h10.645c.327 0 .607-.12.842-.356.234-.237.352-.52.352-.85V11.74c0-.33-.118-.613-.352-.85a1.142 1.142 0 0 0-.842-.355H57.702c-.327 0-.607.118-.842.355-.234.237-.351.52-.351.85v10.445c0 .33.117.613.351.85.235.237.515.355.842.355zM89.119 8c1.04 0 1.922.366 2.646 1.097a3.62 3.62 0 0 1 1.086 2.642v14.184H78.473c-1.02 0-1.891-.365-2.615-1.097a3.62 3.62 0 0 1-1.086-2.642v-6.49h15.54V11.74c0-.33-.117-.613-.352-.85a1.142 1.142 0 0 0-.84-.355H74.771V8h14.347zm1.193 15.39v-5.161H77.28v3.955c0 .33.117.613.352.85s.515.355.841.355h11.84zM118.885 8c1.04 0 1.917.366 2.63 1.097.715.731 1.071 1.612 1.071 2.642v14.184h-2.477V11.74c0-.33-.123-.613-.368-.85a1.193 1.193 0 0 0-.856-.355h-7.373c-.326 0-.606.118-.841.355s-.352.52-.352.85v14.184h-2.539V11.74c0-.33-.117-.613-.352-.85a1.142 1.142 0 0 0-.841-.355h-7.403c-.326 0-.607.118-.841.355-.235.237-.352.52-.352.85v14.184h-2.54V8h23.434zm20.741 0c1.04 0 1.922.366 2.646 1.097a3.62 3.62 0 0 1 1.086 2.642v6.49h-15.571v3.955c0 .33.117.613.352.85.234.237.515.355.841.355h14.378v2.534H128.98c-1.02 0-1.891-.365-2.615-1.097a3.62 3.62 0 0 1-1.087-2.642V11.74c0-1.03.362-1.91 1.087-2.642C127.089 8.366 127.96 8 128.98 8h10.646zm-11.839 7.695h13.032v-3.956c0-.33-.117-.613-.352-.85a1.142 1.142 0 0 0-.841-.355H128.98c-.326 0-.607.118-.841.355-.235.237-.352.52-.352.85v3.956zM150.027 8H160v2.534h-9.973c-.326 0-.607.118-.841.355-.235.237-.352.52-.352.85v14.184h-2.508V11.74c0-1.03.362-1.91 1.086-2.642.724-.731 1.595-1.097 2.615-1.097z"/>
        <path fill-rule="nonzero" d="M3.627 3.627v29.746h29.746V3.627H3.627zM0 0h37v37H0V0z"/>
    </g>
</svg>
