<svg xmlns="http://www.w3.org/2000/svg" xmlns:xlink="http://www.w3.org/1999/xlink" width="24" height="23" viewBox="0 0 24 23">
    <defs>
        <path id="a" d="M0 .601h23.347v21.632H0z"/>
    </defs>
    <g fill="none" fill-rule="evenodd">
        <g transform="translate(0 .166)">
            <mask id="b" fill="#fff">
                <use xlink:href="#a"/>
            </mask>
            <path fill="#3B6FC4" d="M17.048 21.007c-2.97 0-4.09-1.313-4.132-1.363a.61.61 0 0 0-.481-.234h-1.658c-.199 0-.392.106-.507.27-.038.054-.967 1.327-3.971 1.327-2.939 0-5.073-2.133-5.073-5.073A5.078 5.078 0 0 1 6.3 10.862h10.749a5.078 5.078 0 0 1 5.072 5.072c0 2.892-2.18 5.073-5.072 5.073zm-6.783-11.45c0-.43.35-.78.782-.78H12.3c.43 0 .78.35.78.78v.078h-2.816v-.078zm6.783.078h-2.74v-.078a2.01 2.01 0 0 0-2.007-2.007h-.015V6.543c0-.332.27-.602.601-.602h4.166c1.008 0 1.827-.82 1.827-1.827 0-1.007-.82-1.826-1.827-1.826H5.228c-.33 0-.6-.27-.6-.602V.601H3.401v1.085a1.83 1.83 0 0 0 1.827 1.828h11.825a.601.601 0 0 1 0 1.202h-4.166a1.83 1.83 0 0 0-1.827 1.827V7.55h-.013a2.01 2.01 0 0 0-2.008 2.007v.078H6.3A6.306 6.306 0 0 0 0 15.935c0 3.65 2.65 6.299 6.299 6.299 2.877 0 4.258-1.074 4.76-1.597h1.116c.525.495 2.014 1.597 4.873 1.597 3.591 0 6.299-2.709 6.299-6.3a6.306 6.306 0 0 0-6.299-6.299z" mask="url(#b)"/>
        </g>
        <path fill="#3DBC9F" d="M8.524 15.519H6.761v-1.763a.542.542 0 1 0-1.086 0v1.763H3.912a.542.542 0 1 0 0 1.085h1.763v1.764a.544.544 0 0 0 1.086 0v-1.764h1.763a.542.542 0 1 0 0-1.085"/>
        <path fill="#3B6FC4" d="M16.856 12.842a.959.959 0 1 0 0 1.917.959.959 0 0 0 0-1.917"/>
        <path fill="#BDD63B" d="M16.856 17.58a.959.959 0 1 0 0 1.917.959.959 0 0 0 0-1.917"/>
        <path fill="#3B6FC4" d="M14.487 15.211a.959.959 0 1 0 0 1.918.959.959 0 0 0 0-1.918"/>
        <path fill="#3DBC9F" d="M19.225 15.211a.959.959 0 1 0 .001 1.918.959.959 0 0 0 0-1.918"/>
    </g>
</svg>
