<svg xmlns="http://www.w3.org/2000/svg" width="36" height="32" viewBox="0 0 36 32">
    <path fill="#3DBC9F" fill-rule="evenodd" d="M16.816 4.795h-2.41V2.362h2.41v2.432h2.371V2.362h2.41V0h9.64v2.362h-9.64v2.432h-2.373v2.433h-2.408V4.794zM4.762 17.13H2.355v-2.432h2.41v2.43h2.41v2.433H4.762v-2.43zm4.824 4.861h2.41v2.435h2.41v2.432h-2.411v-2.432h-2.41v-2.433h-2.41v-2.432h2.41v2.43zm7.23 7.3h2.371v-2.433h2.41v-2.432h2.41v2.432h-2.41v2.432h-2.37v2.43h-2.41v-2.43h-2.412v-2.432h2.411v2.432zm14.422-12.163v-2.43h2.41v2.432h-2.41v2.43h-2.41v2.433h-2.41v2.433h-2.41V21.99h2.41v-2.43h2.409v-2.433h2.41zm2.421-2.43V4.793H36v9.905h-2.341zm-2.421-9.903V2.362h2.41v2.433h-2.41zM0 14.698V4.793h2.34v9.905H0zM4.764 2.362V0h9.641v2.362h-9.64zm.034 4.875h2.343v-.045h-.045V4.83h4.975v2.362h-2.59v2.407h-2.34v2.656H4.798V7.237zM2.355 4.795V2.362h2.41v2.433h-2.41z"/>
</svg>
