<svg xmlns="http://www.w3.org/2000/svg" width="18" height="19" viewBox="0 0 18 19">
    <path fill="#3B6FC4" fill-rule="evenodd" d="M17.956 15.787l-2.562 2.56-5.193-5.192a6.987 6.987 0 0 1-3.229.79 6.954 6.954 0 0 1-4.933-2.04 6.985 6.985 0 0 1 0-9.866c2.72-2.718 7.146-2.72 9.866 0a6.93 6.93 0 0 1 2.043 4.933c0 1.34-.381 2.62-1.082 3.725l5.09 5.09zM2.793 11.15a5.916 5.916 0 0 0 8.356-.001 5.87 5.87 0 0 0 1.73-4.178 5.871 5.871 0 0 0-1.73-4.178 5.889 5.889 0 0 0-4.178-1.728 5.891 5.891 0 0 0-4.179 1.728 5.916 5.916 0 0 0 0 8.357zm9.11.754c-.245.246-.51.462-.781.663l4.271 4.271 1.053-1.052-4.228-4.228c-.103.116-.203.234-.314.346zM3.58 3.579a4.805 4.805 0 0 1 6.787 0l-.755.754a3.735 3.735 0 0 0-5.277 0l-.755-.754z"/>
</svg>
