<svg xmlns="http://www.w3.org/2000/svg" width="202" height="202" viewBox="0 0 202 202">
    <g fill="none" fill-rule="evenodd">
        <path fill="#F1F1F3" d="M107.747 73.412a3.54 3.54 0 0 0 3.52 3.54l63.826.373a2.845 2.845 0 0 1 2.847 2.846v67.752a2.846 2.846 0 0 1-2.847 2.846H25.23a2.846 2.846 0 0 1-2.846-2.846V80.17a2.845 2.845 0 0 1 2.846-2.846h67.884l.064-7.079H17.579a2.846 2.846 0 0 0-2.846 2.846v81.91a2.846 2.846 0 0 0 2.846 2.846h165.475a2.846 2.846 0 0 0 2.847-2.847V73.092a2.845 2.845 0 0 0-2.847-2.846l-71.748-.374a3.541 3.541 0 0 0-3.559 3.54"/>
        <path fill="#F1F1F3" d="M62.953 104.396V92.185H48.128v12.211H35.916v14.826h12.212v12.212h14.825v-12.212h12.212v-14.826zM144.502 141.346h-11.468a1.425 1.425 0 0 1-1.424-1.425v-11.467c0-.787.638-1.426 1.424-1.426h11.468c.787 0 1.426.639 1.426 1.426v11.467c0 .787-.639 1.425-1.426 1.425M165.241 141.346h-11.468a1.425 1.425 0 0 1-1.424-1.425v-11.467c0-.787.638-1.426 1.424-1.426h11.468c.787 0 1.426.639 1.426 1.426v11.467c0 .787-.639 1.425-1.426 1.425"/>
        <path stroke="#3B6FC4" d="M62.953 104.396V92.185H48.128v12.211H35.916v14.826h12.212v12.212h14.825v-12.212h12.212v-14.826z"/>
        <path fill="#3B6FC4" d="M72.583 106.979H60.372V94.767H50.71v12.212H38.498v9.661H50.71v12.212h9.662V116.64h12.211z"/>
        <path stroke="#D6D6DB" stroke-width="1.5" d="M119.605 137.547H81.027a1.425 1.425 0 0 1-1.424-1.425v-7.22c0-.787.638-1.425 1.424-1.425h38.578c.788 0 1.426.638 1.426 1.425v7.22c0 .788-.638 1.425-1.426 1.425z"/>
        <path fill="#3DBC9F" d="M119.605 141.715H81.027a1.425 1.425 0 0 0 0 2.85h38.578a1.424 1.424 0 1 0 0-2.85"/>
        <path stroke="#D6D6DB" d="M144.502 141.346h-11.468a1.425 1.425 0 0 1-1.424-1.425v-11.467c0-.787.638-1.426 1.424-1.426h11.468c.787 0 1.426.639 1.426 1.426v11.467c0 .787-.639 1.425-1.426 1.425z"/>
        <path fill="#3B6FC4" d="M95.764 134.186H84.911a1.675 1.675 0 0 1 0-3.348h10.853a1.673 1.673 0 1 1 0 3.348"/>
        <path fill="#3DBC9F" d="M164.795 102.913h-31.51c-.925 0-1.676-.75-1.676-1.675v-1.813c0-.925.751-1.675 1.676-1.675h31.51c.925 0 1.674.75 1.674 1.675v1.813c0 .925-.749 1.675-1.674 1.675"/>
        <path fill="#BDD63B" d="M115.647 134.186h-10.853a1.675 1.675 0 0 1 0-3.348h10.853a1.673 1.673 0 1 1 0 3.348"/>
        <path stroke="#D6D6DB" d="M143.804 134.186a5.036 5.036 0 1 1-10.071 0 5.036 5.036 0 0 1 10.071 0z"/>
        <path stroke="#3B6FC4" d="M138.769 130.934a3.251 3.251 0 0 1 3.251 3.252"/>
        <path stroke="#3DBC9F" d="M141.793 135.388c-.18.45-.455.85-.803 1.175"/>
        <path stroke="#D6D6DB" d="M165.241 141.346h-11.468a1.425 1.425 0 0 1-1.424-1.425v-11.467c0-.787.638-1.426 1.424-1.426h11.468c.787 0 1.426.639 1.426 1.426v11.467c0 .787-.639 1.425-1.426 1.425z"/>
        <path stroke="#D6D6DB" d="M164.542 134.186a5.036 5.036 0 1 1-10.071 0 5.036 5.036 0 0 1 10.071 0z"/>
        <path stroke="#3B6FC4" d="M159.507 130.934a3.252 3.252 0 0 1 3.253 3.252"/>
        <path stroke="#3DBC9F" d="M162.531 135.388a3.26 3.26 0 0 1-.801 1.175"/>
        <path stroke="#D6D6DB" stroke-width="1.5" d="M107.38 127.477V117.36a2.582 2.582 0 0 0-2.582-2.582H89.047a2.582 2.582 0 0 1-2.583-2.583v-5.81a2.582 2.582 0 0 1 2.583-2.582h29.401a2.582 2.582 0 0 0 2.583-2.582V97.35a2.582 2.582 0 0 0-2.583-2.582h-7.84a2.582 2.582 0 0 1-2.582-2.583v-11.71a3.15 3.15 0 0 1 3.149-3.15h64.136a2.94 2.94 0 0 1 2.939 2.94v67.566a2.94 2.94 0 0 1-2.939 2.94H25.323a2.94 2.94 0 0 1-2.94-2.94V80.264a2.94 2.94 0 0 1 2.94-2.94h66.749a1.868 1.868 0 0 0 1.868-1.868v-3.437a1.869 1.869 0 0 0-1.868-1.869h-74.4a2.938 2.938 0 0 0-2.939 2.94v81.915a2.938 2.938 0 0 0 2.939 2.94h165.29a2.94 2.94 0 0 0 2.938-2.94V73.09a2.938 2.938 0 0 0-2.938-2.94h-76.318a3.524 3.524 0 0 1-3.524-3.524v-3.453a3.523 3.523 0 0 1 3.524-3.524h41.896a3.85 3.85 0 0 0 3.85-3.85V35.095a3.85 3.85 0 0 0-3.85-3.851H66.43a3.85 3.85 0 0 1-3.85-3.85V17.3"/>
        <path stroke="#D6D6DB" stroke-width="1.5" d="M91.887 27.716h-22.35c-2.379 0-3.472-1.092-3.472-2.44v-1.692M98.859 27.716h-3.357M155.49 42.994v-4.346M155.49 56.034V46.48"/>
        <path fill="#3B6FC4" d="M64.22 17.301h-3.281a2.362 2.362 0 0 1-2.362-2.362v-7.1h8.005v7.1a2.361 2.361 0 0 1-2.363 2.362"/>
        <path stroke="#3B6FC4" stroke-width="1.5" d="M64.22 17.301h-3.281a2.362 2.362 0 0 1-2.362-2.362v-7.1h8.005v7.1a2.361 2.361 0 0 1-2.363 2.362z"/>
        <path stroke="#3B6FC4" stroke-width="1.5" d="M59.765 7.84h5.628V1.023h-5.628z"/>
        <path stroke="#D6D6DB" stroke-width="1.5" d="M11.021 92.185v52.38M11.021 81.167v5.164M189.709 144.566v-3.22M65.247 161.56h119.375a5.087 5.087 0 0 0 5.087-5.088v-6.79M54.947 161.56h4.835"/>
        <path fill="#3DBC9F" d="M54.001 45.535h2.166v-2.167h-2.166v2.167zm0 .832v.783L51 49.284v2.168l1.917 1.918h4.334l1.917-1.918v-1.25h-2.332v.334l-.668.666h-2.167l-.667-.666v-.284l2.834-2.034v-1.85h-2.167zM63.251 51.704v-7.836h-2.668V41.7h7.67v2.167h-2.668v7.836zM77.502 51.704h-7.836V41.7h7.836v2.167H72v1.75h4.835v2.168H72v1.75h5.502z"/>
        <path fill="#3B6FC4" d="M94.836 46.45v3.336l-1.918 1.918h-4.5L86.5 49.786v-6.17l1.917-1.915h4.501l1.918 1.916v1.418h-2.335v-.5l-.666-.667h-2.334l-.668.667v4.335l.668.666h2.334l.666-.666v-.251l.634-.633-.384-.368-.833.835h-1.584V46.45zM102.918 51.704h-4.5L96.5 49.786V41.7h2.333v7.169l.668.666h2.334l.666-.666V41.7h2.335v8.086zM112.918 51.704h-4.5l-1.918-1.918v-1.333h2.333v.417l.668.666h2.333l.667-.666v-.417l-.667-.667h-3.417l-1.917-1.918v-2.251l1.917-1.916h4.334l1.918 1.916v1.335h-2.334v-.417l-.668-.667h-2.166l-.668.667v.417l.668.666h3.417l1.918 1.917v2.25zM118.751 51.704v-7.836h-2.668V41.7h7.67v2.167h-2.668v7.836zM130.102 38l-2.217 1.984 1.033 1.05 2.584-1.652-1.4-1.382zm-3.183 3.701L125 43.616v6.17l1.918 1.917h5l1.917-1.918v-6.169l-1.917-1.915h-5zm.415 7.168v-4.335l.667-.667h2.835l.666.667v4.335l-.666.666H128l-.667-.666zM137.418 41.701l-1.917 1.915v1.253h2.334v-.335l.668-.667h2.166l.668.667v.301l-2.834 2.017v1.849h2.166v-.783l3-2.134v-2.168l-1.917-1.915h-4.334zm1.085 10.003h2.166v-2.168h-2.166v2.168z"/>
        <g>
            <path fill="#3DBC9F" d="M179.948 180.217l10.752 10.878-10.752 10.879 3.294-.003 10.75-10.876-10.75-10.878z"/>
            <path fill="#BDD63B" d="M187.608 180.217l10.752 10.878-10.752 10.879 3.297-.003 10.747-10.876-10.747-10.878z"/>
            <path fill="#3B6FC4" d="M26.359 180.217l-10.69 10.54 10.69 11.217H175.64l10.69-11.218-10.69-10.54z"/>
            <path fill="#3DBC9F" d="M18.759 180.217l-10.75 10.878 10.75 10.876 3.293.003L11.3 191.095l10.752-10.878z"/>
            <path fill="#BDD63B" d="M11.096 180.217L.348 191.095l10.748 10.876 3.296.003-10.753-10.879 10.753-10.878z"/>
            <path fill="#FFF" d="M45.766 188.398c0-.218.041-.425.125-.62.083-.196.198-.365.343-.508a1.7 1.7 0 0 1 .512-.344c.195-.086.402-.13.621-.13h6.078c.219 0 .426.044.621.13.196.086.366.2.512.344a1.566 1.566 0 0 1 .469 1.129v1.445h-1.602v-1.446h-6.078v8h6.078v-1.437h1.602v1.437a1.609 1.609 0 0 1-.98 1.477 1.566 1.566 0 0 1-.622.125h-6.078a1.609 1.609 0 0 1-1.477-.98 1.566 1.566 0 0 1-.124-.622v-8zm21.445 8a1.609 1.609 0 0 1-.98 1.477 1.566 1.566 0 0 1-.622.125h-6.398a1.609 1.609 0 0 1-1.477-.98 1.566 1.566 0 0 1-.125-.622v-8c0-.218.042-.425.125-.62.084-.196.198-.365.344-.508a1.7 1.7 0 0 1 .512-.344c.195-.086.402-.13.62-.13h6.4c.218 0 .425.044.62.13.196.086.366.2.512.344a1.566 1.566 0 0 1 .469 1.129v8zm-8-8v8h6.398v-8h-6.398zM75.867 198l-4.18-8.21V198h-1.601v-11.203h1.75l4.266 8.437 4.273-8.437h1.742V198h-1.594v-8.21l-4.18 8.21h-.476zM85 198v-11.203h6.133c1.812 0 2.719.909 2.719 2.726v1.594c0 1.818-.907 2.727-2.72 2.727h-4.53V198H85zm1.602-5.758h4.445c.427 0 .734-.094.922-.281.187-.188.281-.495.281-.922v-1.437c0-.428-.094-.735-.281-.922-.188-.188-.495-.282-.922-.282h-4.445v3.844zm13.124-5.445l4.32 11.203h-1.601l-.993-2.578h-5.054L95.406 198h-1.602l4.32-11.203h1.602zm-2.719 7.023h3.828l-1.906-4.937-1.922 4.937zm2.274-10.218h2.336l-2.641 1.757h-1.469l1.774-1.757zm15.539 7.195c0 1.562-.667 2.453-2 2.672l2.109 4.531h-1.773l-2.079-4.477h-3.507V198h-1.602v-11.203h6.133c1.812 0 2.719.909 2.719 2.726v1.274zm-7.25 1.125h4.445c.427 0 .734-.094.922-.281.187-.188.281-.495.281-.922v-1.117c0-.428-.094-.735-.281-.922-.188-.188-.495-.282-.922-.282h-4.445v3.524zm8.96-5.125h8.962v1.601h-3.68V198h-1.602v-9.602h-3.68v-1.601zm10.883 0h8.164v1.601h-6.562v3.204h5.602v1.601h-5.602v3.195h6.562V198h-8.164v-11.203zm12.164 0v9.601h5.758V198h-7.36v-11.203h1.602zm17.282 9.601a1.609 1.609 0 0 1-.98 1.477 1.566 1.566 0 0 1-.622.125h-6.398a1.609 1.609 0 0 1-1.477-.98 1.566 1.566 0 0 1-.125-.622v-8c0-.218.042-.425.125-.62.084-.196.198-.365.344-.508a1.7 1.7 0 0 1 .512-.344c.195-.086.402-.13.62-.13h6.4c.218 0 .425.044.62.13.196.086.366.2.512.344a1.566 1.566 0 0 1 .469 1.129v8zm-8-8v8h6.398v-8h-6.398z"/>
        </g>
    </g>
</svg>
